<svg version="1.1" id="Layer_1" xmlns="http://www.w3.org/2000/svg" xmlns:xlink="http://www.w3.org/1999/xlink" x="0px" y="0px"
	 width="100%" viewBox="0 0 800 800" enable-background="new 0 0 800 800" xml:space="preserve">
<path fill="#FFFEFE" opacity="1.000000" stroke="none" 
	d="
M462.000000,801.000000 
	C308.000000,801.000000 154.500000,801.000000 1.000000,801.000000 
	C1.000000,534.333313 1.000000,267.666656 1.000000,1.000000 
	C267.666656,1.000000 534.333313,1.000000 801.000000,1.000000 
	C801.000000,267.666656 801.000000,534.333313 801.000000,801.000000 
	C688.166687,801.000000 575.333313,801.000000 462.000000,801.000000 
M679.105164,199.071350 
	C679.056824,184.052292 679.008545,169.033249 679.139832,153.220886 
	C679.080139,152.143448 679.020386,151.065994 679.119995,149.202850 
	C679.067200,148.139496 679.014404,147.076141 679.142761,145.088715 
	C679.079285,136.391312 679.015808,127.693916 679.112610,118.100525 
	C679.050903,115.068794 678.989136,112.037064 678.559021,108.227448 
	C671.449463,108.148331 664.339539,107.979126 657.230408,108.009644 
	C644.171143,108.065704 631.112244,108.239403 617.504028,108.898453 
	C617.443176,124.536751 617.335999,140.175034 617.329346,155.813339 
	C617.298645,227.873581 617.295959,299.933807 617.055908,372.769989 
	C617.024780,373.843658 616.993713,374.917358 616.618225,376.525513 
	C616.516357,377.350464 616.414490,378.175415 616.088135,379.786987 
	C613.367737,395.533508 606.453979,409.185242 594.992554,421.117188 
	C583.995239,431.693604 570.546204,437.405426 555.052429,440.794128 
	C536.285767,443.556396 517.890869,442.455322 499.568878,435.085449 
	C494.347687,431.917969 488.846527,429.128235 483.961334,425.507385 
	C472.419586,416.952667 465.347931,405.015015 460.058350,391.193909 
	C456.839874,378.765686 455.712830,366.138092 455.965454,353.309479 
	C456.177399,342.545593 455.890503,331.771881 455.979919,320.075714 
	C455.927856,298.050568 455.875824,276.025452 455.979004,253.073898 
	C455.928040,232.714752 455.877045,212.355591 455.981812,191.071182 
	C455.981812,182.019028 455.981812,172.966888 455.981812,163.782471 
	C458.569763,163.782471 460.569672,163.782471 463.026489,163.782471 
	C463.026489,173.497726 463.026489,182.749725 462.859070,192.926239 
	C462.916382,214.618561 462.973694,236.310883 462.863312,258.927643 
	C462.918579,281.952942 462.973816,304.978210 462.864197,328.928101 
	C462.872467,341.685303 462.378021,354.470123 463.077179,367.189331 
	C463.498077,374.845978 465.777374,382.400482 467.295349,390.698547 
	C473.520477,407.660126 484.198914,420.593750 501.520935,428.470001 
	C517.736816,435.717682 534.593994,437.373108 552.824829,434.266174 
	C565.016235,431.807251 576.655701,428.099243 586.712891,419.291046 
	C587.128723,418.858459 587.544556,418.425873 588.578308,417.730225 
	C591.394714,414.428619 594.211121,411.126984 597.454712,407.769073 
	C597.720154,407.593872 597.844849,407.347443 598.250977,406.631836 
	C598.518738,406.129028 598.786499,405.626221 599.568848,404.759308 
	C600.038818,403.840851 600.508789,402.922363 601.185791,401.798401 
	C601.185791,401.798401 601.173157,401.506927 601.731750,401.029022 
	C607.583923,390.464111 610.404541,379.103333 610.825012,366.136353 
	C610.787476,357.418884 610.749878,348.701385 610.844604,339.501404 
	C610.800476,339.340607 610.756287,339.179779 610.856018,338.091766 
	C610.809692,332.711884 610.763367,327.332031 610.897034,321.037537 
	C610.897034,268.487915 610.897034,215.938324 610.897034,163.509003 
	C601.216736,163.509003 592.318237,163.509003 583.310547,163.509003 
	C583.231995,165.054398 583.122620,166.204147 583.122498,167.353897 
	C583.117310,232.324295 583.116577,297.294708 583.154724,362.265076 
	C583.155579,363.695587 583.612549,365.125854 583.353333,367.084625 
	C583.317078,367.804871 583.280884,368.525116 583.015198,369.855347 
	C581.410828,375.572296 579.806458,381.289246 577.957703,387.346985 
	C577.957703,387.346985 577.915466,387.764191 577.506714,388.056091 
	C577.385071,388.359741 577.263428,388.663391 576.734070,389.385071 
	C576.479126,389.901093 576.224121,390.417114 575.452332,391.274384 
	C575.138550,391.806824 574.824829,392.339294 574.006714,393.256012 
	C567.411255,401.017517 558.859192,405.266602 548.175171,407.115051 
	C536.529785,409.051605 525.148254,407.962189 513.451965,403.704590 
	C503.606140,399.326385 497.271820,391.639740 493.072998,381.198181 
	C492.307556,377.117523 491.029510,373.056671 490.870972,368.952576 
	C490.356781,355.644806 490.253113,342.321167 490.153259,328.077393 
	C490.100555,304.719482 490.047882,281.361572 490.156891,257.077057 
	C490.101471,235.385513 490.046051,213.693985 490.155182,191.076721 
	C490.155182,172.665710 490.155182,154.254700 490.155182,135.759827 
	C469.404968,135.759827 449.224945,135.759827 428.895416,135.759827 
	C428.895416,154.113419 428.895416,172.059326 428.723541,190.928726 
	C428.781158,211.621490 428.838776,232.314240 428.724609,253.931000 
	C428.781647,276.622986 428.838684,299.314941 428.726929,322.931396 
	C428.719147,334.574066 428.615631,346.217651 428.728180,357.859161 
	C428.863770,371.882202 430.503723,385.693634 435.323975,399.719025 
	C436.757751,403.404266 437.981201,407.188354 439.659393,410.758728 
	C450.542267,433.911987 467.612030,450.385712 492.629547,459.275085 
	C514.263123,467.195526 536.484924,467.823334 559.797363,464.718170 
	C574.729797,462.402191 588.884583,457.762512 601.321106,449.091492 
	C607.060913,445.089569 611.893738,439.786926 617.748962,434.778168 
	C632.598816,419.096802 640.173279,400.121216 643.348083,378.362305 
	C643.498352,376.908478 643.648621,375.454620 644.011169,373.227966 
	C644.030273,372.162109 644.049377,371.096222 644.447815,369.302368 
	C644.563843,349.345947 644.679871,329.389496 644.948792,308.577423 
	C644.894897,278.045197 644.841003,247.512970 644.943237,216.058319 
	C644.881470,208.360840 644.819641,200.663376 644.919556,192.056747 
	C644.885437,188.040207 644.851318,184.023651 645.011841,179.085907 
	C644.948120,165.062286 644.884399,151.038651 645.238220,136.254105 
	C647.276733,136.111618 649.315308,135.969131 651.749512,135.798981 
	C651.749512,143.767090 651.736755,151.052216 651.751709,158.337296 
	C651.819824,191.552872 651.895752,224.768463 651.768494,258.908234 
	C651.820312,276.605408 651.872131,294.302551 651.750427,312.924133 
	C651.129456,335.844238 650.508484,358.764313 649.469910,382.368256 
	C646.012512,403.367584 637.864319,422.275299 623.736511,439.009613 
	C621.987976,440.771301 620.277710,442.572968 618.484863,444.288361 
	C604.232666,457.925018 586.976013,465.705627 567.196106,470.109528 
	C548.493103,474.009796 529.703186,473.618958 510.256348,471.005646 
	C492.851379,467.664795 476.745667,461.241516 461.958954,450.233826 
	C451.623718,442.084534 443.399170,432.163330 437.054596,420.649780 
	C430.704132,409.125458 425.907532,397.067169 424.235718,383.033295 
	C423.496429,370.962402 422.445099,358.900452 422.098846,346.818298 
	C421.690125,332.556030 421.891113,318.276306 421.981903,303.076935 
	C421.929321,279.049316 421.876770,255.021683 421.972748,230.067657 
	C421.918945,207.044250 421.865143,184.020828 421.966675,160.071579 
	C421.966675,142.835831 421.966675,125.600098 421.966675,108.359528 
	C412.416779,108.359528 403.531372,108.359528 394.515320,108.359528 
	C394.515320,124.803497 394.515320,140.904816 394.289581,157.914856 
	C394.392426,181.614319 394.495270,205.313766 394.409912,229.876389 
	C394.442078,254.871201 394.474213,279.865997 394.275787,305.660675 
	C394.260895,323.324921 393.897034,340.998474 394.368866,358.649689 
	C394.630066,368.421021 396.289825,378.154938 397.298767,388.783234 
	C400.579742,399.982239 403.016937,411.518311 407.326233,422.306549 
	C415.074005,441.702881 427.078674,458.281097 444.283356,471.602722 
	C447.902924,474.189362 451.390076,476.990143 455.165161,479.325439 
	C471.119263,489.194641 488.318970,495.712219 507.672180,498.527191 
	C513.898804,499.183014 520.111938,500.043243 526.354675,500.454803 
	C542.442993,501.515472 558.394409,500.470703 574.979553,496.685638 
	C578.687561,495.764801 582.449402,495.018433 586.094666,493.894165 
	C606.259399,487.675140 624.422546,478.020172 639.803833,462.247070 
	C641.444519,460.097656 643.085205,457.948242 644.711304,455.649353 
	C644.711304,455.649353 644.860962,455.637756 645.478210,455.710480 
	C645.851379,455.170715 646.167114,454.578369 646.606079,454.098816 
	C661.248535,438.102997 669.430786,418.933472 674.553833,397.551208 
	C674.659668,396.704254 674.765503,395.857269 675.136658,394.409393 
	C675.161133,393.975128 675.185608,393.540894 675.629272,392.458008 
	C681.005432,366.822113 678.879211,340.860474 679.147034,314.070160 
	C679.098022,289.712616 679.048950,265.355103 679.151489,240.070953 
	C679.092041,230.040573 679.032532,220.010208 679.126587,209.085556 
	C679.064209,206.055557 679.001831,203.025574 679.105164,199.071350 
M101.000122,468.500000 
	C101.000122,476.626099 101.000122,484.752228 101.000122,493.273346 
	C102.539078,493.273346 103.657928,493.273376 104.776772,493.273346 
	C147.265335,493.272705 189.757874,493.611420 232.240631,493.114807 
	C250.850677,492.897278 269.728424,492.637360 287.980591,489.481598 
	C326.924377,482.748230 357.062683,462.564789 374.356964,425.866516 
	C380.888702,412.006287 383.695557,397.152802 384.706177,381.892609 
	C387.492157,339.825653 367.636230,306.529907 329.665924,289.906738 
	C327.197021,288.825897 324.704193,287.799805 321.727020,286.538239 
	C333.910431,279.283081 343.831543,270.514465 351.281738,259.187592 
	C380.392639,214.928955 369.715088,139.949631 298.227783,116.032166 
	C278.583771,109.459885 257.993225,108.456619 237.488022,108.304466 
	C193.002686,107.974342 148.513947,108.098213 104.026596,108.051964 
	C103.090340,108.050995 102.153885,108.237701 101.000122,108.359879 
	C101.000122,228.271362 101.000122,347.885681 101.000122,468.500000 
M475.238892,570.281372 
	C474.937592,565.195129 473.496490,560.538818 468.492950,558.339233 
	C460.221405,554.703125 453.558197,558.841553 447.360840,563.747070 
	C440.382568,554.985291 435.475403,554.853210 421.176361,562.889160 
	C420.857483,561.277710 420.553955,559.743713 420.263519,558.276001 
	C414.359894,558.276001 408.767761,558.276001 403.313385,558.276001 
	C400.663513,564.409058 404.558990,566.341187 409.027863,567.621765 
	C409.027863,575.828186 409.128723,583.656738 408.923584,591.477295 
	C408.891296,592.708130 407.649139,594.771057 406.666931,594.969849 
	C401.226013,596.071228 402.187073,599.527405 402.873291,603.179077 
	C410.807953,603.179077 418.399689,603.179077 426.132233,603.179077 
	C426.408600,599.718323 427.584259,596.307678 423.012299,594.784424 
	C422.378967,594.573364 421.950958,592.860291 421.933197,591.833801 
	C421.832367,586.003906 421.805115,580.169861 421.916107,574.340271 
	C421.981445,570.906921 426.075348,568.025696 430.543762,567.850037 
	C435.098114,567.670959 435.690399,570.788574 435.765198,574.122681 
	C435.895935,579.951477 435.881256,585.786804 435.749115,591.615417 
	C435.723206,592.758301 435.161346,594.600403 434.381256,594.897461 
	C429.852661,596.621399 431.222473,599.910217 431.546570,603.171143 
	C438.781921,603.171143 445.710754,603.171143 452.729950,603.171143 
	C452.952362,599.704773 454.153870,596.204590 449.586090,594.732422 
	C449.106140,594.577698 448.727600,593.345276 448.719818,592.608398 
	C448.653259,586.277649 448.559052,579.942322 448.738495,573.615906 
	C448.822479,570.655334 453.520752,567.848877 457.519745,567.848145 
	C461.371185,567.847473 462.309937,570.337036 462.366028,573.437195 
	C462.477509,579.599670 462.494049,585.765564 462.406921,591.928040 
	C462.392609,592.938599 461.884064,594.594482 461.204620,594.837952 
	C456.597351,596.489197 458.203613,599.945984 458.287079,603.110107 
	C465.946747,603.110107 473.350830,603.110107 480.723969,603.110107 
	C481.375824,599.223694 481.771637,595.899414 476.908966,594.766296 
	C476.129913,594.584778 475.388306,592.418274 475.358307,591.152100 
	C475.200562,584.491028 475.276855,577.824402 475.238892,570.281372 
M107.150681,568.507141 
	C107.151024,575.833496 107.223915,583.161194 107.081161,590.484741 
	C107.057037,591.722229 106.320518,593.838074 105.544922,594.025574 
	C99.980049,595.371399 100.644249,599.151550 101.276993,603.089722 
	C112.200462,603.089722 122.857689,603.478943 133.472458,602.974487 
	C143.065506,602.518555 148.386978,597.267883 149.588425,588.346558 
	C150.696823,580.116089 145.981125,575.547424 138.895737,572.556641 
	C146.577194,567.786194 149.012741,562.744141 147.419586,555.396423 
	C146.073517,549.188293 141.319412,544.740234 133.703476,544.367676 
	C122.943466,543.841309 112.138481,544.234253 99.995987,544.234253 
	C101.138649,547.568787 101.374527,551.687683 103.016121,552.356567 
	C106.810951,553.902771 107.495880,556.039551 107.195969,559.523743 
	C106.968330,562.168274 107.150734,564.848083 107.150681,568.507141 
M141.983215,661.484009 
	C141.808746,666.134094 141.994370,670.833191 141.370697,675.422241 
	C140.550156,681.459595 137.288452,683.717957 130.877167,683.564392 
	C124.493752,683.411499 121.240402,681.027466 120.884033,674.881226 
	C120.335648,665.423157 120.416847,655.925293 120.403969,646.444092 
	C120.402542,645.391663 121.370743,643.566956 122.155495,643.407104 
	C128.099686,642.195923 127.221489,638.161255 126.696129,634.224060 
	C117.945000,634.224060 109.540817,634.224060 100.824921,634.224060 
	C101.729347,637.422852 99.010399,641.379150 103.739120,642.560791 
	C106.951942,643.363647 107.197853,645.391724 107.160713,648.116821 
	C107.049545,656.273682 106.966957,664.437927 107.194344,672.590271 
	C107.384636,679.412476 108.665489,686.238953 114.995171,690.072937 
	C124.500648,695.830566 134.808182,695.585876 144.684708,691.270752 
	C153.618546,687.367554 155.007675,678.898193 155.152664,670.262329 
	C155.281235,662.605408 155.092010,654.942688 155.265442,647.287537 
	C155.296570,645.913269 156.177826,643.567627 157.058655,643.363647 
	C162.893860,642.012390 161.682892,638.016663 161.233795,634.173584 
	C152.553650,634.173584 144.141724,634.173584 134.417969,634.173584 
	C135.470169,637.288513 135.777802,641.351624 137.175537,641.769592 
	C142.168274,643.262634 142.301331,646.462341 142.028763,650.503296 
	C141.805176,653.818237 141.983215,657.160278 141.983215,661.484009 
M642.923035,541.754517 
	C642.238403,540.565796 641.603333,538.383179 640.861206,538.346191 
	C635.119690,538.059937 629.357422,538.188354 623.458984,538.188354 
	C623.458984,541.481567 623.458984,543.432739 623.458984,545.573792 
	C625.685547,546.315247 627.818298,547.025452 630.077515,547.777771 
	C630.077515,562.512939 630.133545,576.993652 629.975769,591.472107 
	C629.962524,592.687439 628.686768,594.750122 627.700500,594.949463 
	C622.545227,595.991638 622.733276,599.201660 623.709351,603.126648 
	C631.611694,603.126648 639.343445,603.126648 647.046326,603.126648 
	C647.434204,598.281494 647.408142,598.307617 643.863037,594.767090 
	C643.351746,594.256470 642.976929,593.357544 642.969055,592.633667 
	C642.900269,586.304749 642.792542,579.970642 642.988464,573.647034 
	C643.082764,570.602478 648.260742,567.594116 652.284607,567.821289 
	C655.902344,568.025513 657.149719,570.250305 657.168762,573.488708 
	C657.205017,579.651550 657.241028,585.815430 657.146729,591.976868 
	C657.131226,592.992554 656.701172,594.649170 656.038635,594.903076 
	C651.529358,596.631348 653.067444,599.992554 653.282043,603.423523 
	C657.188660,603.423523 660.837280,603.423523 664.485840,603.423523 
	C668.253723,603.423523 672.021606,603.423523 675.754150,603.423523 
	C676.295471,599.333557 676.962524,595.921021 671.969055,594.829956 
	C671.110168,594.642273 670.240906,592.303711 670.201233,590.934814 
	C669.998291,583.944641 670.322510,576.933960 669.977112,569.954407 
	C669.495422,560.222656 662.067322,555.027588 652.642334,557.723816 
	C649.387573,558.654846 646.341064,560.313721 642.922974,561.756897 
	C642.922974,555.296082 642.922974,549.000610 642.923035,541.754517 
M319.316650,572.498657 
	C320.042816,571.817871 320.663513,570.765381 321.514313,570.523987 
	C324.391205,569.707947 327.821228,567.998169 330.126343,568.918335 
	C331.938751,569.641846 333.053223,573.682190 333.321655,576.364807 
	C333.816498,581.310120 333.533722,586.342163 333.410065,591.333984 
	C333.380493,592.528564 332.977295,594.526184 332.278473,594.760437 
	C327.630341,596.318970 329.124115,599.831543 329.146088,603.055054 
	C336.847321,603.055054 344.371490,603.055054 351.862610,603.055054 
	C352.218781,597.600708 352.116089,597.745667 347.957916,594.799683 
	C346.934814,594.074768 346.397308,592.080200 346.358246,590.649597 
	C346.167419,583.661926 346.500671,576.652161 346.118683,569.679260 
	C345.618011,560.539856 338.600708,555.387573 329.961487,557.806580 
	C325.899200,558.944031 322.098633,561.016357 318.189453,562.660828 
	C317.914093,561.135925 317.634491,559.587708 317.394775,558.260376 
	C311.349030,558.260376 305.733856,558.260376 299.893127,558.260376 
	C299.375092,562.150635 298.239410,565.772400 303.785675,566.750366 
	C304.769226,566.923828 306.050415,568.958679 306.112610,570.188782 
	C306.373077,575.336975 306.140442,580.507568 306.244293,585.666809 
	C306.347443,590.793030 307.595825,596.460999 299.900085,596.362305 
	C299.900085,599.079651 299.900085,601.140930 299.900085,603.097046 
	C308.025574,603.097046 315.763214,603.097046 324.422211,603.097046 
	C323.648010,600.359131 323.645081,596.842102 322.271942,596.184082 
	C318.855164,594.546570 318.980347,592.154175 319.024323,589.298950 
	C319.106323,583.972534 319.068329,578.644165 319.316650,572.498657 
M498.560944,713.006592 
	C505.043640,713.542969 510.503845,711.308655 514.305542,706.137695 
	C516.931946,702.565369 519.231995,698.591064 520.850525,694.471313 
	C525.100830,683.652527 529.036438,672.703003 532.799316,661.703613 
	C534.059814,658.018921 535.284851,654.858398 539.799805,654.843262 
	C539.799805,652.327942 539.799805,650.088196 539.799805,648.110046 
	C532.095459,648.110046 524.696716,648.110046 517.326660,648.110046 
	C517.326660,650.629272 517.326660,652.608154 517.326660,654.564880 
	C518.980164,655.177979 520.487122,655.736694 522.039246,656.312195 
	C519.845093,663.370300 517.727905,670.180908 515.150330,678.472595 
	C512.445435,669.979248 510.217224,662.982910 507.988647,655.985291 
	C509.806702,655.373657 511.148499,654.922241 512.211914,654.564453 
	C512.211914,652.015198 512.211914,649.927368 512.211914,648.042725 
	C504.626892,648.042725 497.381653,648.042725 490.202576,648.042725 
	C490.202576,650.613281 490.202576,652.715759 490.202576,654.818237 
	C490.580994,654.607666 490.959412,654.397095 491.337830,654.186523 
	C492.897583,656.258606 494.934692,658.124695 495.933533,660.438904 
	C500.014618,669.893738 503.806702,679.474060 507.649017,689.030823 
	C510.167786,695.295654 505.290253,702.721069 498.399841,703.138550 
	C496.478851,703.254883 494.544830,703.156189 492.442230,703.156189 
	C492.100189,706.599548 491.825836,709.361145 491.500092,712.640320 
	C493.775116,712.768982 495.721191,712.879028 498.560944,713.006592 
M211.300354,653.501099 
	C208.999100,651.469543 207.017609,648.513489 204.334656,647.585449 
	C197.223206,645.125732 191.202194,649.023865 185.296921,652.544495 
	C184.754135,650.745361 184.290314,649.208008 183.952667,648.088806 
	C177.797424,648.088806 172.049652,648.088806 166.269501,648.088806 
	C166.269501,650.564575 166.269501,652.536377 166.269501,654.664917 
	C168.485870,655.509644 170.634323,656.328491 172.745514,657.133118 
	C172.745514,666.131470 172.745514,675.043091 172.745514,683.965088 
	C170.493561,684.755188 168.468399,685.465637 166.376770,686.199463 
	C166.376770,688.425476 166.376770,690.512634 166.376770,692.807739 
	C174.374878,692.807739 182.126801,692.807739 190.733139,692.807739 
	C190.231537,690.246826 190.419449,686.454712 189.220901,685.949097 
	C185.088577,684.205811 185.931580,681.117249 185.909821,678.103638 
	C185.877335,673.608398 185.827362,669.111084 185.925262,664.617737 
	C186.005875,660.917358 189.824493,657.814026 194.180450,657.759644 
	C198.496002,657.705750 200.050934,660.363220 200.118301,664.157715 
	C200.221695,669.983337 200.208466,675.813354 200.094482,681.638550 
	C200.074921,682.638123 199.523270,684.290771 198.851669,684.507385 
	C194.164261,686.018799 195.602158,689.455627 195.757935,692.717651 
	C203.590363,692.717651 211.151138,692.717651 220.237640,692.717651 
	C218.763458,689.684326 218.177109,686.144836 216.499069,685.515320 
	C213.105164,684.242188 213.099548,682.287476 213.002197,679.480469 
	C212.709641,671.044922 212.142899,662.618896 211.300354,653.501099 
M577.191345,557.953491 
	C571.253845,557.953491 565.316345,557.953491 559.986511,557.953491 
	C556.830872,565.210815 561.829712,566.258850 565.952454,567.617737 
	C565.952454,574.173157 566.142944,580.338806 565.825989,586.478271 
	C565.740723,588.129761 564.473999,590.553894 563.115723,591.130554 
	C560.382080,592.291138 556.930542,593.378418 554.333984,592.609253 
	C552.883240,592.179504 551.915344,587.985291 551.833740,585.451782 
	C551.541016,576.362061 551.718933,567.257141 551.718933,558.363525 
	C544.770386,558.363525 538.500916,558.363525 532.739929,558.363525 
	C529.418579,565.235474 534.638916,566.154419 538.790710,567.650330 
	C538.790710,575.273010 538.644531,582.593628 538.823853,589.906250 
	C539.114807,601.772705 548.331848,607.548889 559.197388,602.701660 
	C561.739685,601.567505 564.040161,599.891174 566.714783,598.308716 
	C566.984375,599.967529 567.232727,601.495361 567.457581,602.878967 
	C573.516785,602.878967 579.266846,602.878967 586.385132,602.878967 
	C585.266357,599.968384 584.678833,596.077759 583.552185,595.914856 
	C578.485413,595.182007 578.642517,592.084656 578.790955,588.385010 
	C578.971008,583.895569 578.924438,579.391174 578.810730,574.897461 
	C578.669312,569.308167 578.358948,563.723083 577.191345,557.953491 
M203.768280,565.765320 
	C205.468826,566.311890 207.169357,566.858459 209.075729,567.471252 
	C209.075729,574.994812 208.985443,582.301941 209.096085,589.606079 
	C209.279373,601.707886 218.609482,607.618408 229.664688,602.617737 
	C232.140411,601.497864 234.389526,599.877075 236.735916,598.491028 
	C237.238373,600.198486 237.692078,601.740173 237.987122,602.742798 
	C244.230652,602.742798 249.973404,602.742798 255.680328,602.742798 
	C255.680328,600.203186 255.680328,598.234497 255.680328,596.257996 
	C253.354034,595.487244 251.201431,594.774048 248.901459,594.012085 
	C248.901459,581.918884 248.901459,570.152649 248.901459,558.328918 
	C242.400436,558.328918 236.184082,558.328918 230.141312,558.328918 
	C227.306671,564.784546 231.723190,566.265808 236.148926,567.550903 
	C236.148926,573.689148 236.163635,579.504272 236.144318,585.319275 
	C236.128510,590.071594 232.295029,593.617065 227.112152,593.491028 
	C221.741562,593.360596 221.932816,589.406494 221.937653,585.630066 
	C221.949280,576.528137 221.941422,567.426270 221.941422,558.349976 
	C215.202713,558.349976 208.974258,558.349976 202.045517,558.349976 
	C202.421524,561.008179 202.729828,563.187805 203.768280,565.765320 
M390.482635,591.328430 
	C386.789886,592.203369 383.124969,593.638489 379.397949,593.823730 
	C373.594727,594.112183 370.279053,590.240356 370.109070,583.598572 
	C379.036011,583.598572 387.963074,583.598572 396.737213,583.598572 
	C400.031616,572.417603 395.669617,561.644470 386.839539,558.344543 
	C376.680084,554.547791 364.773376,558.389160 359.615265,567.127808 
	C353.683197,577.177673 355.294342,593.047119 363.069061,599.526489 
	C364.818176,600.984253 366.946899,602.238281 369.110718,602.903809 
	C379.433502,606.079346 388.676697,603.687683 397.665070,596.845886 
	C394.701752,595.303345 396.694855,589.514404 390.482635,591.328430 
M195.054016,564.551270 
	C188.439270,556.543030 179.797943,555.732483 170.578781,558.123291 
	C161.936203,560.364441 157.204498,566.554382 155.899628,575.156860 
	C155.310440,579.041016 155.246475,583.144714 155.783844,587.032715 
	C157.209305,597.346619 162.778900,602.778259 172.404861,603.974670 
	C183.984390,605.413818 193.200027,601.137451 196.857574,592.008118 
	C200.480698,582.964783 200.506653,573.866089 195.054016,564.551270 
M316.865875,673.119568 
	C324.967896,673.119568 333.069916,673.119568 341.544464,673.119568 
	C341.683594,670.113342 341.965942,667.641357 341.883362,665.181580 
	C341.480957,653.194458 333.829407,646.162354 321.832458,646.640076 
	C307.461304,647.212341 298.281586,659.015320 300.279846,674.363281 
	C301.171021,681.207947 303.353455,687.283752 309.771667,691.028015 
	C317.729523,695.670593 332.514038,695.114380 341.215698,686.211609 
	C340.074402,684.108765 338.910187,681.963684 338.002960,680.292114 
	C333.108337,681.460999 328.826050,682.874084 324.435272,683.429016 
	C319.446503,684.059570 315.272186,681.034729 314.303894,676.500549 
	C314.097839,675.535706 315.366547,674.255981 316.865875,673.119568 
M512.118530,603.773315 
	C525.132202,599.699463 531.243835,588.475464 528.482239,573.858337 
	C527.386414,568.058472 524.967590,563.155396 519.729553,560.005737 
	C510.200378,554.275818 495.783417,556.841370 489.486176,565.383606 
	C482.562347,574.775818 483.459106,592.873596 491.573364,599.499634 
	C494.148865,601.602783 497.637512,602.998718 500.925751,603.703064 
	C504.250336,604.415161 507.844421,603.869263 512.118530,603.773315 
M293.141907,660.733276 
	C294.967987,658.362305 296.794098,655.991272 298.620178,653.620300 
	C298.938141,653.838623 299.256134,654.056885 299.574097,654.275208 
	C299.574097,652.174255 299.574097,650.073303 299.574097,648.059875 
	C292.123810,648.059875 284.917145,648.059875 277.563660,648.059875 
	C277.563660,650.520447 277.563660,652.479309 277.563660,654.546631 
	C279.118469,655.155945 280.600159,655.736572 282.156403,656.346436 
	C279.896423,663.795715 277.715637,670.984009 275.079163,679.674316 
	C272.359344,670.917297 270.087372,663.602234 267.726440,656.000671 
	C269.386078,655.477417 270.734894,655.052124 272.063232,654.633301 
	C272.063232,652.211487 272.063232,650.089233 272.063232,648.098938 
	C264.644775,648.098938 257.427765,648.098938 250.215546,648.098938 
	C250.215546,650.596130 250.215546,652.579102 250.215546,654.562073 
	C252.809341,656.318054 254.802704,658.427368 255.751358,660.932312 
	C259.781647,671.574463 263.502197,682.333862 267.324615,693.019104 
	C271.193909,693.019104 274.538452,692.766785 277.825287,693.094177 
	C280.774323,693.387939 281.867218,692.060181 282.743927,689.559204 
	C286.035706,680.168884 289.498230,670.838440 293.141907,660.733276 
M398.755127,693.875427 
	C403.499146,693.277100 408.438019,693.310974 412.938995,691.923950 
	C418.856567,690.100281 422.054779,685.487915 422.126984,679.063660 
	C422.190613,673.401917 419.563293,669.839722 413.156036,667.280334 
	C409.767578,665.926758 406.142242,665.114929 402.871460,663.543213 
	C401.554810,662.910522 399.975739,660.724487 400.194122,659.559998 
	C400.434723,658.276978 402.461548,656.735046 403.958832,656.392517 
	C408.527863,655.347412 412.048950,656.736877 412.664001,661.760864 
	C415.224152,661.760864 417.337067,661.760864 419.999237,661.760864 
	C419.999237,658.246216 420.187012,654.933289 419.894623,651.663208 
	C419.795929,650.559753 418.576111,648.754639 417.704651,648.651123 
	C411.642395,647.930786 405.489807,646.874634 399.457581,647.281372 
	C392.278137,647.765625 387.798462,652.684937 387.104401,658.929565 
	C386.342773,665.782227 389.035980,670.018250 396.297363,673.112427 
	C399.807739,674.608154 403.489105,675.728516 406.907684,677.398315 
	C407.972137,677.918213 409.083099,679.744080 408.977905,680.859375 
	C408.874847,681.951904 407.434937,683.376892 406.262024,683.832031 
	C400.668427,686.002625 396.194489,683.812683 394.385284,678.327148 
	C392.106689,678.327148 389.842010,678.327148 387.374146,678.327148 
	C387.374146,682.995728 387.374146,687.409668 387.374146,692.150452 
	C390.974670,692.720154 394.406799,693.263245 398.755127,693.875427 
M610.580444,559.093323 
	C609.695984,558.128052 608.146729,557.225403 608.048828,556.186096 
	C607.725708,552.754028 607.927002,549.272705 607.927002,545.343506 
	C603.450378,546.118958 599.449951,546.811951 594.992188,547.584167 
	C594.992188,551.601074 594.992188,555.326782 594.992188,559.013184 
	C592.090088,559.564514 589.699036,560.018799 587.521667,560.432434 
	C587.521667,563.373657 587.521667,565.921082 587.521667,568.795776 
	C590.177368,568.795776 592.440369,568.795776 595.126770,568.795776 
	C595.126770,576.257996 594.944092,583.383850 595.168945,590.496704 
	C595.517883,601.532532 602.261169,606.541199 612.867676,603.560364 
	C616.083557,602.656555 619.020081,600.758362 622.236328,599.244202 
	C620.847961,596.505920 619.843384,594.524475 618.900208,592.664246 
	C616.817505,593.271545 615.413147,593.799683 613.960876,594.081177 
	C610.286255,594.793274 608.084656,593.362976 608.043579,589.471130 
	C607.971924,582.693420 608.023621,575.914429 608.023621,568.566650 
	C612.052917,568.566650 615.769104,568.566650 619.374878,568.566650 
	C619.374878,565.087891 619.374878,562.191589 619.374878,559.094299 
	C616.511536,559.094299 614.025085,559.094299 610.580444,559.093323 
M353.282196,679.299988 
	C352.602386,681.107239 352.204163,684.286682 351.195923,684.493591 
	C345.659668,685.629700 346.098328,688.932739 347.060547,692.631348 
	C356.468140,692.631348 365.539886,692.631348 374.526306,692.631348 
	C374.526306,690.275879 374.526306,688.313782 374.526306,686.228455 
	C371.666321,685.402283 368.985107,684.627686 366.124573,683.801331 
	C366.124573,678.136292 366.124146,672.650757 366.124725,667.165283 
	C366.125427,660.764587 368.071014,658.668945 374.807922,657.877319 
	C375.384796,660.062500 375.964264,662.257568 376.525940,664.385254 
	C379.159912,664.385254 381.434113,664.385254 383.973633,664.385254 
	C384.220062,659.665588 384.640076,655.189575 384.560425,650.722412 
	C384.539612,649.556580 383.181458,647.744141 382.063965,647.382263 
	C376.709686,645.648438 371.927917,647.084473 367.761810,650.810242 
	C367.074677,651.424744 366.180939,651.808228 365.283447,652.359436 
	C364.947754,650.630249 364.673615,649.218140 364.448578,648.059021 
	C358.341614,648.059021 352.618073,648.059021 346.892670,648.059021 
	C346.892670,650.629272 346.892670,652.715881 346.892670,655.185974 
	C353.068542,655.206604 353.717651,658.960205 353.358704,663.856812 
	C353.006500,668.661133 353.282043,673.511414 353.282196,679.299988 
M287.887085,568.900635 
	C288.217224,570.836121 288.547363,572.771667 288.851685,574.555664 
	C291.685059,574.555664 294.085663,574.555664 296.871155,574.555664 
	C296.871155,568.968262 296.871155,563.724426 296.871155,558.596497 
	C289.513367,555.143066 283.601410,557.788635 278.266022,563.062012 
	C277.637268,561.000244 277.203857,559.578979 276.853577,558.430420 
	C270.898224,558.430420 265.154053,558.430420 259.718292,558.430420 
	C257.342773,564.746399 261.214386,566.371643 265.937897,567.392456 
	C265.937897,575.752319 266.023682,583.896057 265.831848,592.033325 
	C265.807251,593.078186 264.473877,594.819946 263.519409,594.994324 
	C258.228149,595.961060 258.818970,599.366882 259.494385,603.061279 
	C268.814056,603.061279 277.852997,603.061279 286.817261,603.061279 
	C286.817261,600.584595 286.817261,598.491821 286.817261,596.488464 
	C278.849213,594.358215 278.849243,594.358215 278.849274,586.421814 
	C278.849274,583.258118 278.845947,580.094421 278.849670,576.930725 
	C278.856689,570.964600 280.977966,568.821411 287.887085,568.900635 
M463.056671,682.012512 
	C463.776520,686.996582 465.267303,691.526245 470.729950,693.163513 
	C477.912628,695.316345 483.958557,692.781982 489.739136,688.580078 
	C488.641632,686.292175 487.718719,684.368347 486.755280,682.359985 
	C484.633423,682.914917 482.596344,684.088928 480.896698,683.717773 
	C479.074768,683.319885 476.234833,681.554626 476.149506,680.236450 
	C475.683044,673.031189 475.927338,665.779846 475.927338,658.075012 
	C480.054260,658.075012 483.620880,658.075012 487.247345,658.075012 
	C487.247345,654.815796 487.247345,652.046143 487.247345,648.855774 
	C483.434662,648.855774 479.848969,648.855774 475.721436,648.855774 
	C475.721436,644.064209 475.721436,639.677795 475.721436,634.849792 
	C471.102234,635.723267 467.100830,636.479980 462.653320,637.321045 
	C462.653320,641.346680 462.653320,645.077271 462.653320,648.703003 
	C459.858643,649.156860 457.584900,649.526123 455.357300,649.887878 
	C455.357300,652.807922 455.357300,655.401123 455.357300,658.069153 
	C457.902771,658.213928 460.173889,658.343201 462.976410,658.502625 
	C462.976410,666.229431 462.976410,673.670166 463.056671,682.012512 
M446.647583,667.498352 
	C446.647583,660.930908 446.647583,654.363525 446.647583,648.008545 
	C439.673401,648.008545 433.434692,648.008545 427.133301,648.008545 
	C427.133301,650.559570 427.133301,652.666321 427.133301,655.151733 
	C433.955780,655.124084 434.164551,659.534241 433.794586,664.603271 
	C433.517212,668.403748 433.536102,672.254211 433.789612,676.058105 
	C434.132080,681.197510 434.257690,685.956299 427.152588,685.872131 
	C427.152588,688.438782 427.152588,690.527649 427.152588,692.762207 
	C435.583282,692.762207 443.790985,692.762207 452.941681,692.762207 
	C452.249634,690.111267 452.042511,686.191223 451.032806,685.972290 
	C445.653168,684.805847 446.639526,681.015137 446.646362,677.466614 
	C446.652130,674.476501 446.647552,671.486328 446.647583,667.498352 
M227.430191,647.853027 
	C225.977570,647.945374 224.524963,648.037659 223.015503,648.133545 
	C223.015503,650.536682 223.015503,652.646667 223.015503,654.756653 
	C225.757172,655.948059 229.014282,657.719421 229.206680,659.777344 
	C229.869095,666.862427 229.576370,674.051270 229.349640,681.191223 
	C229.310272,682.430664 227.976303,684.523499 226.982880,684.690491 
	C221.325684,685.641296 222.838135,689.324829 223.075806,692.790161 
	C231.592941,692.790161 239.679840,692.790161 249.452393,692.790161 
	C247.879700,689.695496 247.279099,686.409363 245.425842,685.381470 
	C242.915939,683.989258 242.213806,682.709045 242.241241,680.092957 
	C242.353989,669.339661 242.288361,658.584595 242.288361,647.845398 
	C237.291824,647.845398 232.827637,647.845398 227.430191,647.853027 
M435.799103,627.077271 
	C430.544159,631.954346 430.904663,639.655762 436.743103,640.874512 
	C439.272919,641.402649 443.526123,640.303711 444.812927,638.437866 
	C446.334534,636.231628 446.461792,632.032471 445.449188,629.357544 
	C444.021240,625.585266 440.156708,625.449524 435.799103,627.077271 
M240.491501,627.924072 
	C239.800659,627.483459 239.163696,626.882080 238.409836,626.629456 
	C234.726105,625.394897 230.851105,625.887024 229.479721,629.496948 
	C228.416214,632.296387 228.480637,636.580872 229.999985,638.951355 
	C231.100586,640.668457 235.670715,641.342712 238.218277,640.673157 
	C241.986954,639.682678 242.929886,635.926941 242.315582,632.156921 
	C242.110382,630.897705 241.457184,629.711487 240.491501,627.924072 
z"/>
<path fill="#001623" opacity="1.000000" stroke="none" 
	d="
M101.000122,468.000000 
	C101.000122,347.885681 101.000122,228.271362 101.000122,108.359879 
	C102.153885,108.237701 103.090340,108.050995 104.026596,108.051964 
	C148.513947,108.098213 193.002686,107.974342 237.488022,108.304466 
	C257.993225,108.456619 278.583771,109.459885 298.227783,116.032166 
	C369.715088,139.949631 380.392639,214.928955 351.281738,259.187592 
	C343.831543,270.514465 333.910431,279.283081 321.727020,286.538239 
	C324.704193,287.799805 327.197021,288.825897 329.665924,289.906738 
	C367.636230,306.529907 387.492157,339.825653 384.706177,381.892609 
	C383.695557,397.152802 380.888702,412.006287 374.356964,425.866516 
	C357.062683,462.564789 326.924377,482.748230 287.980591,489.481598 
	C269.728424,492.637360 250.850677,492.897278 232.240631,493.114807 
	C189.757874,493.611420 147.265335,493.272705 104.776772,493.273346 
	C103.657928,493.273376 102.539078,493.273346 101.000122,493.273346 
	C101.000122,484.752228 101.000122,476.626099 101.000122,468.000000 
M195.269272,384.499817 
	C195.269272,391.919952 195.269272,399.340088 195.269272,406.094574 
	C216.181061,406.094574 236.372894,406.972870 256.450531,405.835541 
	C274.744110,404.799255 286.507202,394.886841 289.456665,379.681091 
	C293.479584,358.941284 286.485809,343.218292 264.094574,338.581360 
	C259.393372,337.607819 254.535446,336.996765 249.740997,336.938629 
	C232.580093,336.730530 215.415421,336.825806 198.252182,336.832794 
	C197.327774,336.833160 196.403473,337.074371 195.615555,337.184418 
	C195.445694,337.884003 195.303802,338.196442 195.303406,338.509064 
	C195.284348,353.505981 195.277527,368.502899 195.269272,384.499817 
M246.612793,253.206955 
	C263.368011,250.249237 271.847351,240.348190 271.856750,223.730453 
	C271.865906,207.522461 264.065094,197.854645 246.733963,195.809219 
	C233.073349,194.196976 219.142761,194.860077 205.331314,194.547028 
	C202.049210,194.472641 198.764008,194.535980 195.562134,194.535980 
	C195.562134,214.782928 195.562134,234.380463 195.562134,253.373962 
	C212.490692,253.373962 229.121124,253.373962 246.612793,253.206955 
z"/>
<path fill="#F4753E" opacity="1.000000" stroke="none" 
	d="
M428.895416,190.005234 
	C428.895416,172.059326 428.895416,154.113419 428.895416,135.759827 
	C449.224945,135.759827 469.404968,135.759827 490.155182,135.759827 
	C490.155182,154.254700 490.155182,172.665710 489.650513,191.528595 
	C480.439362,191.987549 471.732941,191.994644 463.026489,192.001740 
	C463.026489,182.749725 463.026489,173.497726 463.026489,163.782471 
	C460.569672,163.782471 458.569763,163.782471 455.981812,163.782471 
	C455.981812,172.966888 455.981812,182.019028 455.529846,191.481201 
	C452.088013,191.260803 449.118073,190.237091 446.104004,190.084442 
	C440.381165,189.794617 434.633026,190.003494 428.895416,190.005234 
z"/>
<path fill="#ED1579" opacity="1.000000" stroke="none" 
	d="
M644.817139,180.007111 
	C644.851318,184.023651 644.885437,188.040207 644.463318,192.402435 
	C643.672180,191.216080 643.062439,189.686722 643.047424,188.151550 
	C642.955322,178.706650 642.791443,169.253967 643.086365,159.817474 
	C643.223633,155.425034 642.213196,153.550720 637.396667,153.895340 
	C631.296204,154.331833 625.141235,154.006897 618.994202,153.740112 
	C618.729614,153.026154 618.480530,152.582413 618.184204,151.663818 
	C618.170532,137.772064 618.204163,124.355171 618.531372,110.905754 
	C619.212463,110.253632 619.600159,109.634033 620.457214,109.005936 
	C638.955200,109.003609 656.983887,109.009781 675.015625,109.418594 
	C675.345032,111.530373 675.409058,113.350754 676.073181,114.916649 
	C676.708313,116.414268 677.967407,117.647247 678.952271,118.996521 
	C679.015808,127.693916 679.079285,136.391312 678.797424,145.761658 
	C678.621582,147.619263 678.791077,148.803909 678.960632,149.988556 
	C679.020386,151.065994 679.080139,152.143448 678.762451,153.912231 
	C678.252625,158.740494 678.120239,162.877411 677.519897,167.009796 
	C670.746216,167.003372 664.426147,167.258148 658.139526,166.910477 
	C653.853455,166.673431 652.896179,168.279205 652.926636,172.298141 
	C653.097778,194.864944 653.006592,217.433731 653.003174,240.469543 
	C652.657288,246.619522 652.313049,252.301788 651.968872,257.984039 
	C651.895752,224.768463 651.819824,191.552872 651.751709,158.337296 
	C651.736755,151.052216 651.749512,143.767090 651.749512,135.798981 
	C649.315308,135.969131 647.276733,136.111618 644.781494,136.961151 
	C644.222412,150.365997 644.093994,163.063721 644.054443,175.761703 
	C644.049988,177.176041 644.550720,178.591934 644.817139,180.007111 
z"/>
<path fill="#F15F5C" opacity="1.000000" stroke="none" 
	d="
M424.267120,383.906921 
	C425.907532,397.067169 430.704132,409.125458 437.054596,420.649780 
	C443.399170,432.163330 451.623718,442.084534 461.824890,450.747711 
	C458.368774,456.463135 455.383667,461.931793 451.569611,466.743347 
	C449.890869,468.861053 446.525848,469.642059 443.926453,471.029968 
	C427.078674,458.281097 415.074005,441.702881 407.326233,422.306549 
	C403.016937,411.518311 400.579742,399.982239 397.790649,388.376617 
	C406.944092,386.615662 415.605591,385.261292 424.267120,383.906921 
z"/>
<path fill="#EF3C70" opacity="1.000000" stroke="none" 
	d="
M583.244690,369.245361 
	C583.280884,368.525116 583.317078,367.804871 583.644653,366.319305 
	C583.985107,361.676270 584.034119,357.798553 584.365540,353.628662 
	C584.764465,351.529022 584.980469,349.721649 584.982483,347.914032 
	C585.007935,325.185516 585.078308,302.456451 584.928772,279.728882 
	C584.904419,276.030029 585.950317,274.660248 589.707336,274.947815 
	C596.449341,275.463898 603.215759,275.661407 609.980103,276.460449 
	C609.981750,282.628387 609.975281,288.327850 609.712036,294.233643 
	C609.625977,295.616943 609.796692,296.794006 609.975952,298.434021 
	C609.976746,302.609772 609.968933,306.322540 609.706116,310.240967 
	C609.620789,311.618805 609.790466,312.790985 609.969849,314.388123 
	C610.225281,317.192719 610.471191,319.572449 610.717041,321.952148 
	C610.763367,327.332031 610.809692,332.711884 610.654419,338.649841 
	C610.283386,339.536316 610.369934,339.795013 610.712280,339.983917 
	C610.749878,348.701385 610.787476,357.418884 610.483887,366.872223 
	C608.512329,368.073273 606.892639,368.893066 605.249695,368.942627 
	C597.918274,369.163696 590.580322,369.164795 583.244690,369.245361 
z"/>
<path fill="#1F1C21" opacity="1.000000" stroke="none" 
	d="
M475.255371,570.720520 
	C475.276855,577.824402 475.200562,584.491028 475.358307,591.152100 
	C475.388306,592.418274 476.129913,594.584778 476.908966,594.766296 
	C481.771637,595.899414 481.375824,599.223694 480.723969,603.110107 
	C473.350830,603.110107 465.946747,603.110107 458.287079,603.110107 
	C458.203613,599.945984 456.597351,596.489197 461.204620,594.837952 
	C461.884064,594.594482 462.392609,592.938599 462.406921,591.928040 
	C462.494049,585.765564 462.477509,579.599670 462.366028,573.437195 
	C462.309937,570.337036 461.371185,567.847473 457.519745,567.848145 
	C453.520752,567.848877 448.822479,570.655334 448.738495,573.615906 
	C448.559052,579.942322 448.653259,586.277649 448.719818,592.608398 
	C448.727600,593.345276 449.106140,594.577698 449.586090,594.732422 
	C454.153870,596.204590 452.952362,599.704773 452.729950,603.171143 
	C445.710754,603.171143 438.781921,603.171143 431.546570,603.171143 
	C431.222473,599.910217 429.852661,596.621399 434.381256,594.897461 
	C435.161346,594.600403 435.723206,592.758301 435.749115,591.615417 
	C435.881256,585.786804 435.895935,579.951477 435.765198,574.122681 
	C435.690399,570.788574 435.098114,567.670959 430.543762,567.850037 
	C426.075348,568.025696 421.981445,570.906921 421.916107,574.340271 
	C421.805115,580.169861 421.832367,586.003906 421.933197,591.833801 
	C421.950958,592.860291 422.378967,594.573364 423.012299,594.784424 
	C427.584259,596.307678 426.408600,599.718323 426.132233,603.179077 
	C418.399689,603.179077 410.807953,603.179077 402.873291,603.179077 
	C402.187073,599.527405 401.226013,596.071228 406.666931,594.969849 
	C407.649139,594.771057 408.891296,592.708130 408.923584,591.477295 
	C409.128723,583.656738 409.027863,575.828186 409.027863,567.621765 
	C404.558990,566.341187 400.663513,564.409058 403.313385,558.276001 
	C408.767761,558.276001 414.359894,558.276001 420.263519,558.276001 
	C420.553955,559.743713 420.857483,561.277710 421.176361,562.889160 
	C435.475403,554.853210 440.382568,554.985291 447.360840,563.747070 
	C453.558197,558.841553 460.221405,554.703125 468.492950,558.339233 
	C473.496490,560.538818 474.937592,565.195129 475.255371,570.720520 
z"/>
<path fill="#EE3373" opacity="1.000000" stroke="none" 
	d="
M644.787109,216.980743 
	C644.841003,247.512970 644.894897,278.045197 644.452148,308.867096 
	C641.219238,305.977264 637.621582,305.797974 633.768860,305.959839 
	C628.863708,306.165985 623.944092,306.027405 619.018921,305.564697 
	C618.999390,292.387878 618.991577,279.683868 618.983215,266.512451 
	C618.994812,249.366776 619.006958,232.688522 619.486450,216.006989 
	C628.231628,216.329391 636.509338,216.655075 644.787109,216.980743 
z"/>
<path fill="#F26757" opacity="1.000000" stroke="none" 
	d="
M424.251404,383.470093 
	C415.605591,385.261292 406.944092,386.615662 397.800842,387.937866 
	C396.289825,378.154938 394.630066,368.421021 394.368866,358.649689 
	C393.897034,340.998474 394.260895,323.324921 394.898102,305.298828 
	C404.289520,304.626038 413.058655,304.315094 421.827759,304.004150 
	C421.891113,318.276306 421.690125,332.556030 422.098846,346.818298 
	C422.445099,358.900452 423.496429,370.962402 424.251404,383.470093 
z"/>
<path fill="#F3704E" opacity="1.000000" stroke="none" 
	d="
M421.904846,303.540558 
	C413.058655,304.315094 404.289520,304.626038 395.013367,304.898895 
	C394.474213,279.865997 394.442078,254.871201 395.009735,229.442734 
	C404.357513,229.541992 413.303162,227.464127 421.824188,230.994049 
	C421.876770,255.021683 421.929321,279.049316 421.904846,303.540558 
z"/>
<path fill="#F05067" opacity="1.000000" stroke="none" 
	d="
M639.177063,462.604034 
	C624.422546,478.020172 606.259399,487.675140 586.094666,493.894165 
	C582.449402,495.018433 578.687561,495.764801 574.526123,496.218811 
	C573.866638,493.798553 573.897217,491.784088 573.411865,489.902679 
	C571.705383,483.287994 569.821716,476.719055 568.005310,470.132751 
	C586.976013,465.705627 604.232666,457.925018 618.484863,444.288361 
	C620.277710,442.572968 621.987976,440.771301 624.445251,438.954529 
	C628.171814,440.967316 631.408691,442.782623 634.154114,445.164520 
	C637.918396,448.430420 641.309753,452.126190 644.860962,455.637756 
	C644.860962,455.637756 644.711304,455.649353 644.322021,455.489441 
	C639.564758,455.935089 638.677612,458.816345 639.177063,462.604034 
z"/>
<path fill="#F26456" opacity="1.000000" stroke="none" 
	d="
M455.824463,321.002502 
	C455.890503,331.771881 456.177399,342.545593 455.965454,353.309479 
	C455.712830,366.138092 456.839874,378.765686 459.596802,391.603882 
	C458.050659,392.360596 456.973572,392.733429 455.880188,393.049896 
	C449.002258,395.040619 442.120758,397.018799 435.240417,399.001160 
	C430.503723,385.693634 428.863770,371.882202 428.728180,357.859161 
	C428.615631,346.217651 428.719147,334.574066 429.248474,322.465515 
	C438.454865,321.667267 447.139648,321.334869 455.824463,321.002502 
z"/>
<path fill="#1F1C21" opacity="1.000000" stroke="none" 
	d="
M107.150681,568.009644 
	C107.150734,564.848083 106.968330,562.168274 107.195969,559.523743 
	C107.495880,556.039551 106.810951,553.902771 103.016121,552.356567 
	C101.374527,551.687683 101.138649,547.568787 99.995987,544.234253 
	C112.138481,544.234253 122.943466,543.841309 133.703476,544.367676 
	C141.319412,544.740234 146.073517,549.188293 147.419586,555.396423 
	C149.012741,562.744141 146.577194,567.786194 138.895737,572.556641 
	C145.981125,575.547424 150.696823,580.116089 149.588425,588.346558 
	C148.386978,597.267883 143.065506,602.518555 133.472458,602.974487 
	C122.857689,603.478943 112.200462,603.089722 101.276993,603.089722 
	C100.644249,599.151550 99.980049,595.371399 105.544922,594.025574 
	C106.320518,593.838074 107.057037,591.722229 107.081161,590.484741 
	C107.223915,583.161194 107.151024,575.833496 107.150681,568.009644 
M135.289612,589.462769 
	C137.878311,580.034851 132.019485,575.334534 120.712769,577.895508 
	C120.712769,582.793823 120.712769,587.718872 120.712769,593.126343 
	C125.712296,592.612244 130.858368,594.585205 135.289612,589.462769 
M120.461571,563.366211 
	C120.461571,564.821228 120.461571,566.276245 120.461571,567.936584 
	C125.445274,568.088989 130.582321,569.446960 133.323700,564.549438 
	C134.438370,562.557922 134.388031,558.520691 133.061829,556.835327 
	C129.917770,552.839600 125.092049,554.449646 120.461746,554.690430 
	C120.461746,557.542480 120.461746,559.995483 120.461571,563.366211 
z"/>
<path fill="#F37241" opacity="1.000000" stroke="none" 
	d="
M421.898468,230.530853 
	C413.303162,227.464127 404.357513,229.541992 395.103821,229.011154 
	C394.495270,205.313766 394.392426,181.614319 394.794678,157.454239 
	C399.581451,156.662415 403.858429,156.170181 408.146088,156.046127 
	C412.282837,155.926407 416.938171,154.781418 419.069733,160.269699 
	C419.271393,160.788895 420.864319,160.767731 421.811340,160.997421 
	C421.865143,184.020828 421.918945,207.044250 421.898468,230.530853 
z"/>
<path fill="#EF426E" opacity="1.000000" stroke="none" 
	d="
M649.887451,381.684418 
	C650.508484,358.764313 651.129456,335.844238 652.311462,312.463867 
	C661.629883,312.557770 670.729370,310.126160 678.992371,314.996063 
	C678.879211,340.860474 681.005432,366.822113 675.108032,392.546387 
	C674.626892,387.975616 671.549011,386.618286 667.673157,386.108643 
	C664.735962,385.722412 661.495056,385.985657 658.940308,384.786285 
	C655.981750,383.397369 651.630798,386.197784 649.887451,381.684418 
z"/>
<path fill="#F15D5D" opacity="1.000000" stroke="none" 
	d="
M435.282196,399.360107 
	C442.120758,397.018799 449.002258,395.040619 455.880188,393.049896 
	C456.973572,392.733429 458.050659,392.360596 459.510925,392.007324 
	C465.347931,405.015015 472.419586,416.952667 483.961334,425.507385 
	C488.846527,429.128235 494.347687,431.917969 499.818237,435.733490 
	C500.038422,439.116028 500.487488,441.962189 499.880585,444.561829 
	C498.613861,449.987915 496.420929,455.078003 492.010132,458.854889 
	C467.612030,450.385712 450.542267,433.911987 439.659393,410.758728 
	C437.981201,407.188354 436.757751,403.404266 435.282196,399.360107 
z"/>
<path fill="#1E1C20" opacity="1.000000" stroke="none" 
	d="
M141.983215,660.987183 
	C141.983215,657.160278 141.805176,653.818237 142.028763,650.503296 
	C142.301331,646.462341 142.168274,643.262634 137.175537,641.769592 
	C135.777802,641.351624 135.470169,637.288513 134.417969,634.173584 
	C144.141724,634.173584 152.553650,634.173584 161.233795,634.173584 
	C161.682892,638.016663 162.893860,642.012390 157.058655,643.363647 
	C156.177826,643.567627 155.296570,645.913269 155.265442,647.287537 
	C155.092010,654.942688 155.281235,662.605408 155.152664,670.262329 
	C155.007675,678.898193 153.618546,687.367554 144.684708,691.270752 
	C134.808182,695.585876 124.500648,695.830566 114.995171,690.072937 
	C108.665489,686.238953 107.384636,679.412476 107.194344,672.590271 
	C106.966957,664.437927 107.049545,656.273682 107.160713,648.116821 
	C107.197853,645.391724 106.951942,643.363647 103.739120,642.560791 
	C99.010399,641.379150 101.729347,637.422852 100.824921,634.224060 
	C109.540817,634.224060 117.945000,634.224060 126.696129,634.224060 
	C127.221489,638.161255 128.099686,642.195923 122.155495,643.407104 
	C121.370743,643.566956 120.402542,645.391663 120.403969,646.444092 
	C120.416847,655.925293 120.335648,665.423157 120.884033,674.881226 
	C121.240402,681.027466 124.493752,683.411499 130.877167,683.564392 
	C137.288452,683.717957 140.550156,681.459595 141.370697,675.422241 
	C141.994370,670.833191 141.808746,666.134094 141.983215,660.987183 
z"/>
<path fill="#F2694E" opacity="1.000000" stroke="none" 
	d="
M463.029083,328.003479 
	C462.973816,304.978210 462.918579,281.952942 463.367920,258.453827 
	C472.580109,257.987885 481.287628,257.995758 489.995178,258.003662 
	C490.047882,281.361572 490.100555,304.719482 489.604279,328.539124 
	C480.379883,328.668427 471.704498,328.335968 463.029083,328.003479 
z"/>
<path fill="#EE3671" opacity="1.000000" stroke="none" 
	d="
M679.069702,314.533112 
	C670.729370,310.126160 661.629883,312.557770 652.398193,312.001648 
	C651.872131,294.302551 651.820312,276.605408 651.868652,258.446136 
	C652.313049,252.301788 652.657288,246.619522 653.471191,240.468872 
	C662.293945,240.332825 670.646973,240.665192 678.999878,240.997559 
	C679.048950,265.355103 679.098022,289.712616 679.069702,314.533112 
z"/>
<path fill="#EE2976" opacity="1.000000" stroke="none" 
	d="
M679.075684,240.534256 
	C670.646973,240.665192 662.293945,240.332825 653.472900,240.001144 
	C653.006592,217.433731 653.097778,194.864944 652.926636,172.298141 
	C652.896179,168.279205 653.853455,166.673431 658.139526,166.910477 
	C664.426147,167.258148 670.746216,167.003372 677.521118,167.476837 
	C677.997742,178.630356 678.005249,189.312332 678.007812,200.441132 
	C678.326172,203.918610 678.649597,206.949219 678.973022,209.979828 
	C679.032532,220.010208 679.092041,230.040573 679.075684,240.534256 
z"/>
<path fill="#EF4A6B" opacity="1.000000" stroke="none" 
	d="
M649.678711,382.026337 
	C651.630798,386.197784 655.981750,383.397369 658.940308,384.786285 
	C661.495056,385.985657 664.735962,385.722412 667.673157,386.108643 
	C671.549011,386.618286 674.626892,387.975616 674.898438,392.870697 
	C675.185608,393.540894 675.161133,393.975128 674.681396,394.764557 
	C674.205566,396.101898 674.184937,397.084106 674.164307,398.066284 
	C669.430786,418.933472 661.248535,438.102997 646.606079,454.098816 
	C646.167114,454.578369 645.851379,455.170715 645.169556,455.674133 
	C641.309753,452.126190 637.918396,448.430420 634.154114,445.164520 
	C631.408691,442.782623 628.171814,440.967316 624.736084,438.837799 
	C637.864319,422.275299 646.012512,403.367584 649.678711,382.026337 
z"/>
<path fill="#F26A4E" opacity="1.000000" stroke="none" 
	d="
M455.902191,320.539124 
	C447.139648,321.334869 438.454865,321.667267 429.332886,322.003296 
	C428.838684,299.314941 428.781647,276.622986 429.287262,253.466675 
	C438.507874,253.335007 447.165802,253.667679 455.823761,254.000336 
	C455.875824,276.025452 455.927856,298.050568 455.902191,320.539124 
z"/>
<path fill="#1E1C21" opacity="1.000000" stroke="none" 
	d="
M642.922974,542.229858 
	C642.922974,549.000610 642.922974,555.296082 642.922974,561.756897 
	C646.341064,560.313721 649.387573,558.654846 652.642334,557.723816 
	C662.067322,555.027588 669.495422,560.222656 669.977112,569.954407 
	C670.322510,576.933960 669.998291,583.944641 670.201233,590.934814 
	C670.240906,592.303711 671.110168,594.642273 671.969055,594.829956 
	C676.962524,595.921021 676.295471,599.333557 675.754150,603.423523 
	C672.021606,603.423523 668.253723,603.423523 664.485840,603.423523 
	C660.837280,603.423523 657.188660,603.423523 653.282043,603.423523 
	C653.067444,599.992554 651.529358,596.631348 656.038635,594.903076 
	C656.701172,594.649170 657.131226,592.992554 657.146729,591.976868 
	C657.241028,585.815430 657.205017,579.651550 657.168762,573.488708 
	C657.149719,570.250305 655.902344,568.025513 652.284607,567.821289 
	C648.260742,567.594116 643.082764,570.602478 642.988464,573.647034 
	C642.792542,579.970642 642.900269,586.304749 642.969055,592.633667 
	C642.976929,593.357544 643.351746,594.256470 643.863037,594.767090 
	C647.408142,598.307617 647.434204,598.281494 647.046326,603.126648 
	C639.343445,603.126648 631.611694,603.126648 623.709351,603.126648 
	C622.733276,599.201660 622.545227,595.991638 627.700500,594.949463 
	C628.686768,594.750122 629.962524,592.687439 629.975769,591.472107 
	C630.133545,576.993652 630.077515,562.512939 630.077515,547.777771 
	C627.818298,547.025452 625.685547,546.315247 623.458984,545.573792 
	C623.458984,543.432739 623.458984,541.481567 623.458984,538.188354 
	C629.357422,538.188354 635.119690,538.059937 640.861206,538.346191 
	C641.603333,538.383179 642.238403,540.565796 642.922974,542.229858 
z"/>
<path fill="#F36F45" opacity="1.000000" stroke="none" 
	d="
M490.076050,257.540344 
	C481.287628,257.995758 472.580109,257.987885 463.451782,257.991608 
	C462.973694,236.310883 462.916382,214.618561 462.942780,192.463989 
	C471.732941,191.994644 480.439362,191.987549 489.568237,191.991455 
	C490.046051,213.693985 490.101471,235.385513 490.076050,257.540344 
z"/>
<path fill="#F04C78" opacity="1.000000" stroke="none" 
	d="
M619.030701,306.037476 
	C623.944092,306.027405 628.863708,306.165985 633.768860,305.959839 
	C637.621582,305.797974 641.219238,305.977264 644.375732,309.294922 
	C644.679871,329.389496 644.563843,349.345947 643.959900,369.394287 
	C643.139465,367.444946 642.807007,365.403656 642.416626,363.007141 
	C635.395508,363.007141 628.656189,362.861877 621.936707,363.161194 
	C620.909668,363.206940 619.707825,365.176422 619.062500,366.489868 
	C618.221008,368.202545 617.854187,370.148468 617.283142,371.994049 
	C617.295959,299.933807 617.298645,227.873581 617.329346,155.813339 
	C617.335999,140.175034 617.443176,124.536751 617.830322,108.823425 
	C618.156616,108.748390 618.252075,109.134926 618.205078,109.433968 
	C618.184692,110.134766 618.211243,110.536522 618.237793,110.938278 
	C618.204163,124.355171 618.170532,137.772064 618.139648,152.116211 
	C618.176147,190.990341 618.209839,228.937210 618.180298,267.359741 
	C618.117065,298.847260 618.117065,329.859192 618.117065,360.871094 
	C618.421631,360.871094 618.726135,360.871063 619.030701,360.871063 
	C619.030701,342.593201 619.030701,324.315338 619.030701,306.037476 
z"/>
<path fill="#EF4A6B" opacity="1.000000" stroke="none" 
	d="
M617.169556,372.382019 
	C617.854187,370.148468 618.221008,368.202545 619.062500,366.489868 
	C619.707825,365.176422 620.909668,363.206940 621.936707,363.161194 
	C628.656189,362.861877 635.395508,363.007141 642.416626,363.007141 
	C642.807007,365.403656 643.139465,367.444946 643.770264,369.758301 
	C644.049377,371.096222 644.030273,372.162109 643.567261,373.694275 
	C643.084167,375.773163 643.044861,377.385803 643.005615,378.998413 
	C640.173279,400.121216 632.598816,419.096802 617.158081,434.712952 
	C615.957825,432.390228 615.823425,429.821167 614.604675,427.963593 
	C613.401978,426.130554 610.875854,425.225800 609.329224,423.546448 
	C605.782471,419.695374 602.261658,416.683807 597.036926,420.914764 
	C596.751892,421.145569 596.069885,420.886200 595.572693,420.854980 
	C606.453979,409.185242 613.367737,395.533508 616.500732,379.327942 
	C616.929749,377.909607 616.946167,376.950317 616.962585,375.991028 
	C616.993713,374.917358 617.024780,373.843658 617.169556,372.382019 
z"/>
<path fill="#F05664" opacity="1.000000" stroke="none" 
	d="
M567.600708,470.121155 
	C569.821716,476.719055 571.705383,483.287994 573.411865,489.902679 
	C573.897217,491.784088 573.866638,493.798553 574.097656,496.243866 
	C558.394409,500.470703 542.442993,501.515472 526.354675,500.454803 
	C520.111938,500.043243 513.898804,499.183014 507.343048,497.897095 
	C508.300354,488.594788 509.586792,479.922546 510.873230,471.250336 
	C529.703186,473.618958 548.493103,474.009796 567.600708,470.121155 
z"/>
<path fill="#F36F45" opacity="1.000000" stroke="none" 
	d="
M455.901367,253.537109 
	C447.165802,253.667679 438.507874,253.335007 429.373169,253.004669 
	C428.838776,232.314240 428.781158,211.621490 428.809479,190.466980 
	C434.633026,190.003494 440.381165,189.794617 446.104004,190.084442 
	C449.118073,190.237091 452.088013,191.260803 455.451965,191.943832 
	C455.877045,212.355591 455.928040,232.714752 455.901367,253.537109 
z"/>
<path fill="#F15A60" opacity="1.000000" stroke="none" 
	d="
M510.564789,471.127991 
	C509.586792,479.922546 508.300354,488.594788 507.008057,497.675568 
	C488.318970,495.712219 471.119263,489.194641 455.165161,479.325439 
	C451.390076,476.990143 447.902924,474.189362 444.104919,471.316345 
	C446.525848,469.642059 449.890869,468.861053 451.569611,466.743347 
	C455.383667,461.931793 458.368774,456.463135 462.011108,451.033508 
	C476.745667,461.241516 492.851379,467.664795 510.564789,471.127991 
z"/>
<path fill="#1F1C21" opacity="1.000000" stroke="none" 
	d="
M319.198486,572.907654 
	C319.068329,578.644165 319.106323,583.972534 319.024323,589.298950 
	C318.980347,592.154175 318.855164,594.546570 322.271942,596.184082 
	C323.645081,596.842102 323.648010,600.359131 324.422211,603.097046 
	C315.763214,603.097046 308.025574,603.097046 299.900085,603.097046 
	C299.900085,601.140930 299.900085,599.079651 299.900085,596.362305 
	C307.595825,596.460999 306.347443,590.793030 306.244293,585.666809 
	C306.140442,580.507568 306.373077,575.336975 306.112610,570.188782 
	C306.050415,568.958679 304.769226,566.923828 303.785675,566.750366 
	C298.239410,565.772400 299.375092,562.150635 299.893127,558.260376 
	C305.733856,558.260376 311.349030,558.260376 317.394775,558.260376 
	C317.634491,559.587708 317.914093,561.135925 318.189453,562.660828 
	C322.098633,561.016357 325.899200,558.944031 329.961487,557.806580 
	C338.600708,555.387573 345.618011,560.539856 346.118683,569.679260 
	C346.500671,576.652161 346.167419,583.661926 346.358246,590.649597 
	C346.397308,592.080200 346.934814,594.074768 347.957916,594.799683 
	C352.116089,597.745667 352.218781,597.600708 351.862610,603.055054 
	C344.371490,603.055054 336.847321,603.055054 329.146088,603.055054 
	C329.124115,599.831543 327.630341,596.318970 332.278473,594.760437 
	C332.977295,594.526184 333.380493,592.528564 333.410065,591.333984 
	C333.533722,586.342163 333.816498,581.310120 333.321655,576.364807 
	C333.053223,573.682190 331.938751,569.641846 330.126343,568.918335 
	C327.821228,567.998169 324.391205,569.707947 321.514313,570.523987 
	C320.663513,570.765381 320.042816,571.817871 319.198486,572.907654 
z"/>
<path fill="#F16356" opacity="1.000000" stroke="none" 
	d="
M462.946655,328.465790 
	C471.704498,328.335968 480.379883,328.668427 489.523315,329.002258 
	C490.253113,342.321167 490.356781,355.644806 490.870972,368.952576 
	C491.029510,373.056671 492.307556,377.117523 492.670410,381.638550 
	C483.919067,384.719543 475.570312,387.360229 467.221527,390.000916 
	C465.777374,382.400482 463.498077,374.845978 463.077179,367.189331 
	C462.378021,354.470123 462.872467,341.685303 462.946655,328.465790 
z"/>
<path fill="#1F1C21" opacity="1.000000" stroke="none" 
	d="
M498.114105,712.997803 
	C495.721191,712.879028 493.775116,712.768982 491.500092,712.640320 
	C491.825836,709.361145 492.100189,706.599548 492.442230,703.156189 
	C494.544830,703.156189 496.478851,703.254883 498.399841,703.138550 
	C505.290253,702.721069 510.167786,695.295654 507.649017,689.030823 
	C503.806702,679.474060 500.014618,669.893738 495.933533,660.438904 
	C494.934692,658.124695 492.897583,656.258606 491.337830,654.186523 
	C490.959412,654.397095 490.580994,654.607666 490.202576,654.818237 
	C490.202576,652.715759 490.202576,650.613281 490.202576,648.042725 
	C497.381653,648.042725 504.626892,648.042725 512.211914,648.042725 
	C512.211914,649.927368 512.211914,652.015198 512.211914,654.564453 
	C511.148499,654.922241 509.806702,655.373657 507.988647,655.985291 
	C510.217224,662.982910 512.445435,669.979248 515.150330,678.472595 
	C517.727905,670.180908 519.845093,663.370300 522.039246,656.312195 
	C520.487122,655.736694 518.980164,655.177979 517.326660,654.564880 
	C517.326660,652.608154 517.326660,650.629272 517.326660,648.110046 
	C524.696716,648.110046 532.095459,648.110046 539.799805,648.110046 
	C539.799805,650.088196 539.799805,652.327942 539.799805,654.843262 
	C535.284851,654.858398 534.059814,658.018921 532.799316,661.703613 
	C529.036438,672.703003 525.100830,683.652527 520.850525,694.471313 
	C519.231995,698.591064 516.931946,702.565369 514.305542,706.137695 
	C510.503845,711.308655 505.043640,713.542969 498.114105,712.997803 
z"/>
<path fill="#ED2477" opacity="1.000000" stroke="none" 
	d="
M644.865173,216.519531 
	C636.509338,216.655075 628.231628,216.329391 619.477539,215.537231 
	C619.004150,194.717285 619.006958,174.363800 619.009766,154.010330 
	C625.141235,154.006897 631.296204,154.331833 637.396667,153.895340 
	C642.213196,153.550720 643.223633,155.425034 643.086365,159.817474 
	C642.791443,169.253967 642.955322,178.706650 643.047424,188.151550 
	C643.062439,189.686722 643.672180,191.216080 644.382446,192.857010 
	C644.819641,200.663376 644.881470,208.360840 644.865173,216.519531 
z"/>
<path fill="#1E1C21" opacity="1.000000" stroke="none" 
	d="
M211.491730,653.845093 
	C212.142899,662.618896 212.709641,671.044922 213.002197,679.480469 
	C213.099548,682.287476 213.105164,684.242188 216.499069,685.515320 
	C218.177109,686.144836 218.763458,689.684326 220.237640,692.717651 
	C211.151138,692.717651 203.590363,692.717651 195.757935,692.717651 
	C195.602158,689.455627 194.164261,686.018799 198.851669,684.507385 
	C199.523270,684.290771 200.074921,682.638123 200.094482,681.638550 
	C200.208466,675.813354 200.221695,669.983337 200.118301,664.157715 
	C200.050934,660.363220 198.496002,657.705750 194.180450,657.759644 
	C189.824493,657.814026 186.005875,660.917358 185.925262,664.617737 
	C185.827362,669.111084 185.877335,673.608398 185.909821,678.103638 
	C185.931580,681.117249 185.088577,684.205811 189.220901,685.949097 
	C190.419449,686.454712 190.231537,690.246826 190.733139,692.807739 
	C182.126801,692.807739 174.374878,692.807739 166.376770,692.807739 
	C166.376770,690.512634 166.376770,688.425476 166.376770,686.199463 
	C168.468399,685.465637 170.493561,684.755188 172.745514,683.965088 
	C172.745514,675.043091 172.745514,666.131470 172.745514,657.133118 
	C170.634323,656.328491 168.485870,655.509644 166.269501,654.664917 
	C166.269501,652.536377 166.269501,650.564575 166.269501,648.088806 
	C172.049652,648.088806 177.797424,648.088806 183.952667,648.088806 
	C184.290314,649.208008 184.754135,650.745361 185.296921,652.544495 
	C191.202194,649.023865 197.223206,645.125732 204.334656,647.585449 
	C207.017609,648.513489 208.999100,651.469543 211.491730,653.845093 
z"/>
<path fill="#F05067" opacity="1.000000" stroke="none" 
	d="
M595.282593,420.986084 
	C596.069885,420.886200 596.751892,421.145569 597.036926,420.914764 
	C602.261658,416.683807 605.782471,419.695374 609.329224,423.546448 
	C610.875854,425.225800 613.401978,426.130554 614.604675,427.963593 
	C615.823425,429.821167 615.957825,432.390228 616.852417,434.860901 
	C611.893738,439.786926 607.060913,445.089569 601.321106,449.091492 
	C588.884583,457.762512 574.729797,462.402191 559.402832,464.291077 
	C559.039795,461.465271 559.405273,459.013672 559.035339,456.678589 
	C558.192200,451.356659 556.988464,446.091919 555.931213,440.803925 
	C570.546204,437.405426 583.995239,431.693604 595.282593,420.986084 
z"/>
<path fill="#F05663" opacity="1.000000" stroke="none" 
	d="
M555.491821,440.799011 
	C556.988464,446.091919 558.192200,451.356659 559.035339,456.678589 
	C559.405273,459.013672 559.039795,461.465271 559.011597,464.246460 
	C536.484924,467.823334 514.263123,467.195526 492.319824,459.065002 
	C496.420929,455.078003 498.613861,449.987915 499.880585,444.561829 
	C500.487488,441.962189 500.038422,439.116028 500.063416,435.941589 
	C517.890869,442.455322 536.285767,443.556396 555.491821,440.799011 
z"/>
<path fill="#201E23" opacity="1.000000" stroke="none" 
	d="
M577.656494,558.044861 
	C578.358948,563.723083 578.669312,569.308167 578.810730,574.897461 
	C578.924438,579.391174 578.971008,583.895569 578.790955,588.385010 
	C578.642517,592.084656 578.485413,595.182007 583.552185,595.914856 
	C584.678833,596.077759 585.266357,599.968384 586.385132,602.878967 
	C579.266846,602.878967 573.516785,602.878967 567.457581,602.878967 
	C567.232727,601.495361 566.984375,599.967529 566.714783,598.308716 
	C564.040161,599.891174 561.739685,601.567505 559.197388,602.701660 
	C548.331848,607.548889 539.114807,601.772705 538.823853,589.906250 
	C538.644531,582.593628 538.790710,575.273010 538.790710,567.650330 
	C534.638916,566.154419 529.418579,565.235474 532.739929,558.363525 
	C538.500916,558.363525 544.770386,558.363525 551.718933,558.363525 
	C551.718933,567.257141 551.541016,576.362061 551.833740,585.451782 
	C551.915344,587.985291 552.883240,592.179504 554.333984,592.609253 
	C556.930542,593.378418 560.382080,592.291138 563.115723,591.130554 
	C564.473999,590.553894 565.740723,588.129761 565.825989,586.478271 
	C566.142944,580.338806 565.952454,574.173157 565.952454,567.617737 
	C561.829712,566.258850 556.830872,565.210815 559.986511,557.953491 
	C565.316345,557.953491 571.253845,557.953491 577.656494,558.044861 
z"/>
<path fill="#1F1D22" opacity="1.000000" stroke="none" 
	d="
M203.403214,565.566406 
	C202.729828,563.187805 202.421524,561.008179 202.045517,558.349976 
	C208.974258,558.349976 215.202713,558.349976 221.941422,558.349976 
	C221.941422,567.426270 221.949280,576.528137 221.937653,585.630066 
	C221.932816,589.406494 221.741562,593.360596 227.112152,593.491028 
	C232.295029,593.617065 236.128510,590.071594 236.144318,585.319275 
	C236.163635,579.504272 236.148926,573.689148 236.148926,567.550903 
	C231.723190,566.265808 227.306671,564.784546 230.141312,558.328918 
	C236.184082,558.328918 242.400436,558.328918 248.901459,558.328918 
	C248.901459,570.152649 248.901459,581.918884 248.901459,594.012085 
	C251.201431,594.774048 253.354034,595.487244 255.680328,596.257996 
	C255.680328,598.234497 255.680328,600.203186 255.680328,602.742798 
	C249.973404,602.742798 244.230652,602.742798 237.987122,602.742798 
	C237.692078,601.740173 237.238373,600.198486 236.735916,598.491028 
	C234.389526,599.877075 232.140411,601.497864 229.664688,602.617737 
	C218.609482,607.618408 209.279373,601.707886 209.096085,589.606079 
	C208.985443,582.301941 209.075729,574.994812 209.075729,567.471252 
	C207.169357,566.858459 205.468826,566.311890 203.403214,565.566406 
z"/>
<path fill="#F05067" opacity="1.000000" stroke="none" 
	d="
M575.969177,390.933136 
	C576.224121,390.417114 576.479126,389.901093 577.144043,389.033722 
	C577.674500,388.376312 577.794983,388.070251 577.915466,387.764191 
	C577.915466,387.764191 577.957703,387.346985 578.458496,387.175964 
	C585.177246,389.942139 591.335083,393.018036 597.640930,395.752441 
	C600.395020,396.946716 601.326599,398.771698 601.173157,401.506927 
	C601.173157,401.506927 601.185791,401.798401 600.732422,401.959747 
	C599.870728,403.121857 599.462524,404.122620 599.054260,405.123383 
	C598.786499,405.626221 598.518738,406.129028 597.865845,406.917664 
	C597.263428,407.362488 597.112366,407.569763 597.027527,407.825348 
	C594.211121,411.126984 591.394714,414.428619 587.937805,417.908386 
	C586.915344,418.571014 586.533386,419.055450 586.151489,419.539917 
	C576.655701,428.099243 565.016235,431.807251 552.415527,433.851166 
	C552.035217,431.508636 552.304138,429.548859 552.050110,427.659393 
	C551.130859,420.820892 550.035950,414.006042 549.007263,407.182251 
	C558.859192,405.266602 567.411255,401.017517 574.591003,392.979553 
	C575.439941,392.113129 575.704590,391.523132 575.969177,390.933136 
z"/>
<path fill="#F47637" opacity="1.000000" stroke="none" 
	d="
M421.889008,160.534500 
	C420.864319,160.767731 419.271393,160.788895 419.069733,160.269699 
	C416.938171,154.781418 412.282837,155.926407 408.146088,156.046127 
	C403.858429,156.170181 399.581451,156.662415 394.907562,156.999878 
	C394.515320,140.904816 394.515320,124.803497 394.515320,108.359528 
	C403.531372,108.359528 412.416779,108.359528 421.966675,108.359528 
	C421.966675,125.600098 421.966675,142.835831 421.889008,160.534500 
z"/>
<path fill="#201E23" opacity="1.000000" stroke="none" 
	d="
M390.831543,591.198486 
	C396.694855,589.514404 394.701752,595.303345 397.665070,596.845886 
	C388.676697,603.687683 379.433502,606.079346 369.110718,602.903809 
	C366.946899,602.238281 364.818176,600.984253 363.069061,599.526489 
	C355.294342,593.047119 353.683197,577.177673 359.615265,567.127808 
	C364.773376,558.389160 376.680084,554.547791 386.839539,558.344543 
	C395.669617,561.644470 400.031616,572.417603 396.737213,583.598572 
	C387.963074,583.598572 379.036011,583.598572 370.109070,583.598572 
	C370.279053,590.240356 373.594727,594.112183 379.397949,593.823730 
	C383.124969,593.638489 386.789886,592.203369 390.831543,591.198486 
M383.019684,569.835205 
	C380.326660,569.193481 377.260986,567.454834 375.042206,568.208740 
	C372.673615,569.013489 371.104828,572.172119 368.363129,575.218506 
	C374.900665,575.218506 379.549011,575.218506 384.663757,575.218506 
	C384.174774,573.318420 383.815216,571.921265 383.019684,569.835205 
z"/>
<path fill="#1F1C21" opacity="1.000000" stroke="none" 
	d="
M195.266998,564.849609 
	C200.506653,573.866089 200.480698,582.964783 196.857574,592.008118 
	C193.200027,601.137451 183.984390,605.413818 172.404861,603.974670 
	C162.778900,602.778259 157.209305,597.346619 155.783844,587.032715 
	C155.246475,583.144714 155.310440,579.041016 155.899628,575.156860 
	C157.204498,566.554382 161.936203,560.364441 170.578781,558.123291 
	C179.797943,555.732483 188.439270,556.543030 195.266998,564.849609 
M184.802216,572.082031 
	C183.171677,568.339844 179.983948,566.498352 176.378189,567.656799 
	C173.762375,568.497070 170.223434,570.891113 169.771637,573.131836 
	C168.787323,578.013550 169.065048,583.294312 169.679672,588.307495 
	C170.161636,592.238464 173.391678,594.012878 177.363144,593.958130 
	C181.340134,593.903381 184.474747,592.002380 184.914017,588.091187 
	C185.477524,583.073914 185.041397,577.944275 184.802216,572.082031 
z"/>
<path fill="#1E1C21" opacity="1.000000" stroke="none" 
	d="
M316.410828,673.120422 
	C315.366547,674.255981 314.097839,675.535706 314.303894,676.500549 
	C315.272186,681.034729 319.446503,684.059570 324.435272,683.429016 
	C328.826050,682.874084 333.108337,681.460999 338.002960,680.292114 
	C338.910187,681.963684 340.074402,684.108765 341.215698,686.211609 
	C332.514038,695.114380 317.729523,695.670593 309.771667,691.028015 
	C303.353455,687.283752 301.171021,681.207947 300.279846,674.363281 
	C298.281586,659.015320 307.461304,647.212341 321.832458,646.640076 
	C333.829407,646.162354 341.480957,653.194458 341.883362,665.181580 
	C341.965942,667.641357 341.683594,670.113342 341.544464,673.119568 
	C333.069916,673.119568 324.967896,673.119568 316.410828,673.120422 
M322.360199,665.135254 
	C324.404388,665.135254 326.448578,665.135254 328.563538,665.135254 
	C328.334015,660.208679 326.719910,657.280029 322.165344,657.006653 
	C317.977356,656.755310 315.255127,659.429260 314.077484,665.135254 
	C316.593262,665.135254 319.013824,665.135254 322.360199,665.135254 
z"/>
<path fill="#1E1C21" opacity="1.000000" stroke="none" 
	d="
M511.719482,603.823853 
	C507.844421,603.869263 504.250336,604.415161 500.925751,603.703064 
	C497.637512,602.998718 494.148865,601.602783 491.573364,599.499634 
	C483.459106,592.873596 482.562347,574.775818 489.486176,565.383606 
	C495.783417,556.841370 510.200378,554.275818 519.729553,560.005737 
	C524.967590,563.155396 527.386414,568.058472 528.482239,573.858337 
	C531.243835,588.475464 525.132202,599.699463 511.719482,603.823853 
M515.697327,580.494385 
	C515.365967,577.864258 515.333496,575.151306 514.632263,572.623779 
	C513.618774,568.971191 510.760193,567.299622 507.065186,567.356262 
	C503.469788,567.411255 499.924530,568.792542 499.457214,572.502197 
	C498.784943,577.838989 498.760681,583.385193 499.434418,588.718933 
	C499.887146,592.302979 503.174683,593.988831 506.932098,593.978088 
	C510.677246,593.967407 513.428162,592.288452 514.527161,588.710510 
	C515.248840,586.361145 515.326233,583.813904 515.697327,580.494385 
z"/>
<path fill="#1F1C21" opacity="1.000000" stroke="none" 
	d="
M293.019348,661.109436 
	C289.498230,670.838440 286.035706,680.168884 282.743927,689.559204 
	C281.867218,692.060181 280.774323,693.387939 277.825287,693.094177 
	C274.538452,692.766785 271.193909,693.019104 267.324615,693.019104 
	C263.502197,682.333862 259.781647,671.574463 255.751358,660.932312 
	C254.802704,658.427368 252.809341,656.318054 250.215546,654.562073 
	C250.215546,652.579102 250.215546,650.596130 250.215546,648.098938 
	C257.427765,648.098938 264.644775,648.098938 272.063232,648.098938 
	C272.063232,650.089233 272.063232,652.211487 272.063232,654.633301 
	C270.734894,655.052124 269.386078,655.477417 267.726440,656.000671 
	C270.087372,663.602234 272.359344,670.917297 275.079163,679.674316 
	C277.715637,670.984009 279.896423,663.795715 282.156403,656.346436 
	C280.600159,655.736572 279.118469,655.155945 277.563660,654.546631 
	C277.563660,652.479309 277.563660,650.520447 277.563660,648.059875 
	C284.917145,648.059875 292.123810,648.059875 299.574097,648.059875 
	C299.574097,650.073303 299.574097,652.174255 299.574097,654.275208 
	C299.256134,654.056885 298.938141,653.838623 298.620178,653.620300 
	C296.794098,655.991272 294.967987,658.362305 293.019348,661.109436 
z"/>
<path fill="#F15D5D" opacity="1.000000" stroke="none" 
	d="
M467.258423,390.349731 
	C475.570312,387.360229 483.919067,384.719543 492.637024,382.041443 
	C497.271820,391.639740 503.606140,399.326385 513.726929,404.320709 
	C512.191406,410.558289 510.358978,416.172791 508.578186,421.803650 
	C507.397491,425.536987 505.469696,428.289093 501.013397,427.977448 
	C484.198914,420.593750 473.520477,407.660126 467.258423,390.349731 
z"/>
<path fill="#1F1D22" opacity="1.000000" stroke="none" 
	d="
M398.297028,693.840881 
	C394.406799,693.263245 390.974670,692.720154 387.374146,692.150452 
	C387.374146,687.409668 387.374146,682.995728 387.374146,678.327148 
	C389.842010,678.327148 392.106689,678.327148 394.385284,678.327148 
	C396.194489,683.812683 400.668427,686.002625 406.262024,683.832031 
	C407.434937,683.376892 408.874847,681.951904 408.977905,680.859375 
	C409.083099,679.744080 407.972137,677.918213 406.907684,677.398315 
	C403.489105,675.728516 399.807739,674.608154 396.297363,673.112427 
	C389.035980,670.018250 386.342773,665.782227 387.104401,658.929565 
	C387.798462,652.684937 392.278137,647.765625 399.457581,647.281372 
	C405.489807,646.874634 411.642395,647.930786 417.704651,648.651123 
	C418.576111,648.754639 419.795929,650.559753 419.894623,651.663208 
	C420.187012,654.933289 419.999237,658.246216 419.999237,661.760864 
	C417.337067,661.760864 415.224152,661.760864 412.664001,661.760864 
	C412.048950,656.736877 408.527863,655.347412 403.958832,656.392517 
	C402.461548,656.735046 400.434723,658.276978 400.194122,659.559998 
	C399.975739,660.724487 401.554810,662.910522 402.871460,663.543213 
	C406.142242,665.114929 409.767578,665.926758 413.156036,667.280334 
	C419.563293,669.839722 422.190613,673.401917 422.126984,679.063660 
	C422.054779,685.487915 418.856567,690.100281 412.938995,691.923950 
	C408.438019,693.310974 403.499146,693.277100 398.297028,693.840881 
z"/>
<path fill="#F05663" opacity="1.000000" stroke="none" 
	d="
M501.267151,428.223724 
	C505.469696,428.289093 507.397491,425.536987 508.578186,421.803650 
	C510.358978,416.172791 512.191406,410.558289 514.003540,404.536438 
	C525.148254,407.962189 536.529785,409.051605 548.591187,407.148651 
	C550.035950,414.006042 551.130859,420.820892 552.050110,427.659393 
	C552.304138,429.548859 552.035217,431.508636 552.002197,433.847168 
	C534.593994,437.373108 517.736816,435.717682 501.267151,428.223724 
z"/>
<path fill="#201E23" opacity="1.000000" stroke="none" 
	d="
M611.059509,559.093811 
	C614.025085,559.094299 616.511536,559.094299 619.374878,559.094299 
	C619.374878,562.191589 619.374878,565.087891 619.374878,568.566650 
	C615.769104,568.566650 612.052917,568.566650 608.023621,568.566650 
	C608.023621,575.914429 607.971924,582.693420 608.043579,589.471130 
	C608.084656,593.362976 610.286255,594.793274 613.960876,594.081177 
	C615.413147,593.799683 616.817505,593.271545 618.900208,592.664246 
	C619.843384,594.524475 620.847961,596.505920 622.236328,599.244202 
	C619.020081,600.758362 616.083557,602.656555 612.867676,603.560364 
	C602.261169,606.541199 595.517883,601.532532 595.168945,590.496704 
	C594.944092,583.383850 595.126770,576.257996 595.126770,568.795776 
	C592.440369,568.795776 590.177368,568.795776 587.521667,568.795776 
	C587.521667,565.921082 587.521667,563.373657 587.521667,560.432434 
	C589.699036,560.018799 592.090088,559.564514 594.992188,559.013184 
	C594.992188,555.326782 594.992188,551.601074 594.992188,547.584167 
	C599.449951,546.811951 603.450378,546.118958 607.927002,545.343506 
	C607.927002,549.272705 607.725708,552.754028 608.048828,556.186096 
	C608.146729,557.225403 609.695984,558.128052 611.059509,559.093811 
z"/>
<path fill="#201E23" opacity="1.000000" stroke="none" 
	d="
M353.282135,678.820801 
	C353.282043,673.511414 353.006500,668.661133 353.358704,663.856812 
	C353.717651,658.960205 353.068542,655.206604 346.892670,655.185974 
	C346.892670,652.715881 346.892670,650.629272 346.892670,648.059021 
	C352.618073,648.059021 358.341614,648.059021 364.448578,648.059021 
	C364.673615,649.218140 364.947754,650.630249 365.283447,652.359436 
	C366.180939,651.808228 367.074677,651.424744 367.761810,650.810242 
	C371.927917,647.084473 376.709686,645.648438 382.063965,647.382263 
	C383.181458,647.744141 384.539612,649.556580 384.560425,650.722412 
	C384.640076,655.189575 384.220062,659.665588 383.973633,664.385254 
	C381.434113,664.385254 379.159912,664.385254 376.525940,664.385254 
	C375.964264,662.257568 375.384796,660.062500 374.807922,657.877319 
	C368.071014,658.668945 366.125427,660.764587 366.124725,667.165283 
	C366.124146,672.650757 366.124573,678.136292 366.124573,683.801331 
	C368.985107,684.627686 371.666321,685.402283 374.526306,686.228455 
	C374.526306,688.313782 374.526306,690.275879 374.526306,692.631348 
	C365.539886,692.631348 356.468140,692.631348 347.060547,692.631348 
	C346.098328,688.932739 345.659668,685.629700 351.195923,684.493591 
	C352.204163,684.286682 352.602386,681.107239 353.282135,678.820801 
z"/>
<path fill="#1F1C21" opacity="1.000000" stroke="none" 
	d="
M287.702881,568.532715 
	C280.977966,568.821411 278.856689,570.964600 278.849670,576.930725 
	C278.845947,580.094421 278.849274,583.258118 278.849274,586.421814 
	C278.849243,594.358215 278.849213,594.358215 286.817261,596.488464 
	C286.817261,598.491821 286.817261,600.584595 286.817261,603.061279 
	C277.852997,603.061279 268.814056,603.061279 259.494385,603.061279 
	C258.818970,599.366882 258.228149,595.961060 263.519409,594.994324 
	C264.473877,594.819946 265.807251,593.078186 265.831848,592.033325 
	C266.023682,583.896057 265.937897,575.752319 265.937897,567.392456 
	C261.214386,566.371643 257.342773,564.746399 259.718292,558.430420 
	C265.154053,558.430420 270.898224,558.430420 276.853577,558.430420 
	C277.203857,559.578979 277.637268,561.000244 278.266022,563.062012 
	C283.601410,557.788635 289.513367,555.143066 296.871155,558.596497 
	C296.871155,563.724426 296.871155,568.968262 296.871155,574.555664 
	C294.085663,574.555664 291.685059,574.555664 288.851685,574.555664 
	C288.547363,572.771667 288.217224,570.836121 287.702881,568.532715 
z"/>
<path fill="#1F1C21" opacity="1.000000" stroke="none" 
	d="
M463.016541,681.561768 
	C462.976410,673.670166 462.976410,666.229431 462.976410,658.502625 
	C460.173889,658.343201 457.902771,658.213928 455.357300,658.069153 
	C455.357300,655.401123 455.357300,652.807922 455.357300,649.887878 
	C457.584900,649.526123 459.858643,649.156860 462.653320,648.703003 
	C462.653320,645.077271 462.653320,641.346680 462.653320,637.321045 
	C467.100830,636.479980 471.102234,635.723267 475.721436,634.849792 
	C475.721436,639.677795 475.721436,644.064209 475.721436,648.855774 
	C479.848969,648.855774 483.434662,648.855774 487.247345,648.855774 
	C487.247345,652.046143 487.247345,654.815796 487.247345,658.075012 
	C483.620880,658.075012 480.054260,658.075012 475.927338,658.075012 
	C475.927338,665.779846 475.683044,673.031189 476.149506,680.236450 
	C476.234833,681.554626 479.074768,683.319885 480.896698,683.717773 
	C482.596344,684.088928 484.633423,682.914917 486.755280,682.359985 
	C487.718719,684.368347 488.641632,686.292175 489.739136,688.580078 
	C483.958557,692.781982 477.912628,695.316345 470.729950,693.163513 
	C465.267303,691.526245 463.776520,686.996582 463.016541,681.561768 
z"/>
<path fill="#201E23" opacity="1.000000" stroke="none" 
	d="
M446.647583,667.997314 
	C446.647552,671.486328 446.652130,674.476501 446.646362,677.466614 
	C446.639526,681.015137 445.653168,684.805847 451.032806,685.972290 
	C452.042511,686.191223 452.249634,690.111267 452.941681,692.762207 
	C443.790985,692.762207 435.583282,692.762207 427.152588,692.762207 
	C427.152588,690.527649 427.152588,688.438782 427.152588,685.872131 
	C434.257690,685.956299 434.132080,681.197510 433.789612,676.058105 
	C433.536102,672.254211 433.517212,668.403748 433.794586,664.603271 
	C434.164551,659.534241 433.955780,655.124084 427.133301,655.151733 
	C427.133301,652.666321 427.133301,650.559570 427.133301,648.008545 
	C433.434692,648.008545 439.673401,648.008545 446.647583,648.008545 
	C446.647583,654.363525 446.647583,660.930908 446.647583,667.997314 
z"/>
<path fill="#1F1D22" opacity="1.000000" stroke="none" 
	d="
M227.896820,647.849243 
	C232.827637,647.845398 237.291824,647.845398 242.288361,647.845398 
	C242.288361,658.584595 242.353989,669.339661 242.241241,680.092957 
	C242.213806,682.709045 242.915939,683.989258 245.425842,685.381470 
	C247.279099,686.409363 247.879700,689.695496 249.452393,692.790161 
	C239.679840,692.790161 231.592941,692.790161 223.075806,692.790161 
	C222.838135,689.324829 221.325684,685.641296 226.982880,684.690491 
	C227.976303,684.523499 229.310272,682.430664 229.349640,681.191223 
	C229.576370,674.051270 229.869095,666.862427 229.206680,659.777344 
	C229.014282,657.719421 225.757172,655.948059 223.015503,654.756653 
	C223.015503,652.646667 223.015503,650.536682 223.015503,648.133545 
	C224.524963,648.037659 225.977570,647.945374 227.896820,647.849243 
z"/>
<path fill="#F05174" opacity="1.000000" stroke="none" 
	d="
M601.452454,401.267975 
	C601.326599,398.771698 600.395020,396.946716 597.640930,395.752441 
	C591.335083,393.018036 585.177246,389.942139 578.580688,387.005554 
	C579.806458,381.289246 581.410828,375.572296 583.129944,369.550354 
	C590.580322,369.164795 597.918274,369.163696 605.249695,368.942627 
	C606.892639,368.893066 608.512329,368.073273 610.395264,367.337036 
	C610.404541,379.103333 607.583923,390.464111 601.452454,401.267975 
z"/>
<path fill="#F05174" opacity="1.000000" stroke="none" 
	d="
M584.083130,353.920837 
	C584.034119,357.798553 583.985107,361.676270 583.896362,366.055115 
	C583.612549,365.125854 583.155579,363.695587 583.154724,362.265076 
	C583.116577,297.294708 583.117310,232.324295 583.122498,167.353897 
	C583.122620,166.204147 583.231995,165.054398 583.310547,163.509003 
	C592.318237,163.509003 601.216736,163.509003 610.897034,163.509003 
	C610.897034,215.938324 610.897034,268.487915 610.807007,321.494843 
	C610.471191,319.572449 610.225281,317.192719 609.977844,313.995911 
	C609.971191,312.130981 609.966125,311.083160 609.961121,310.035339 
	C609.968933,306.322540 609.976746,302.609772 609.982788,298.040100 
	C609.977051,296.131287 609.972961,295.079315 609.968872,294.027344 
	C609.975281,288.327850 609.981750,282.628387 609.986938,276.014954 
	C609.972595,272.718048 609.959351,270.335144 609.958313,267.489410 
	C609.947998,248.333115 609.925537,229.639618 609.919067,210.481171 
	C609.935181,194.786743 609.935181,179.557236 609.935181,164.478958 
	C600.823364,164.478958 592.595276,164.478958 584.144531,164.478958 
	C584.144531,195.879547 584.144531,226.841873 584.106079,258.283630 
	C584.072754,290.482330 584.077942,322.201599 584.083130,353.920837 
z"/>
<path fill="#201E23" opacity="1.000000" stroke="none" 
	d="
M436.155365,626.909546 
	C440.156708,625.449524 444.021240,625.585266 445.449188,629.357544 
	C446.461792,632.032471 446.334534,636.231628 444.812927,638.437866 
	C443.526123,640.303711 439.272919,641.402649 436.743103,640.874512 
	C430.904663,639.655762 430.544159,631.954346 436.155365,626.909546 
z"/>
<path fill="#201E23" opacity="1.000000" stroke="none" 
	d="
M240.750153,628.208008 
	C241.457184,629.711487 242.110382,630.897705 242.315582,632.156921 
	C242.929886,635.926941 241.986954,639.682678 238.218277,640.673157 
	C235.670715,641.342712 231.100586,640.668457 229.999985,638.951355 
	C228.480637,636.580872 228.416214,632.296387 229.479721,629.496948 
	C230.851105,625.887024 234.726105,625.394897 238.409836,626.629456 
	C239.163696,626.882080 239.800659,627.483459 240.750153,628.208008 
z"/>
<path fill="#EE3373" opacity="1.000000" stroke="none" 
	d="
M618.252075,109.134933 
	C618.252075,109.134926 618.156616,108.748390 618.104919,108.556229 
	C631.112244,108.239403 644.171143,108.065704 657.230408,108.009644 
	C664.339539,107.979126 671.449463,108.148331 678.351624,108.615082 
	C677.100342,109.007133 676.056396,109.011543 675.012512,109.015953 
	C656.983887,109.009781 638.955200,109.003609 620.165894,109.004700 
	C619.020813,109.052948 618.636475,109.093941 618.252075,109.134933 
z"/>
<path fill="#ED0A74" opacity="1.000000" stroke="none" 
	d="
M678.012817,199.994293 
	C678.005249,189.312332 677.997742,178.630356 677.989014,167.481354 
	C678.120239,162.877411 678.252625,158.740494 678.672607,154.308884 
	C679.008545,169.033249 679.056824,184.052292 678.790649,199.534058 
	C678.476074,199.996750 678.012817,199.994293 678.012817,199.994293 
z"/>
<path fill="#F04C78" opacity="1.000000" stroke="none" 
	d="
M644.914490,179.546509 
	C644.550720,178.591934 644.049988,177.176041 644.054443,175.761703 
	C644.093994,163.063721 644.222412,150.365997 644.572632,137.341614 
	C644.884399,151.038651 644.948120,165.062286 644.914490,179.546509 
z"/>
<path fill="#ED0A74" opacity="1.000000" stroke="none" 
	d="
M675.015625,109.418594 
	C676.056396,109.011543 677.100342,109.007133 678.535767,109.004028 
	C678.989136,112.037064 679.050903,115.068794 679.032471,118.548523 
	C677.967407,117.647247 676.708313,116.414268 676.073181,114.916649 
	C675.409058,113.350754 675.345032,111.530373 675.015625,109.418594 
z"/>
<path fill="#EF4A6B" opacity="1.000000" stroke="none" 
	d="
M639.490479,462.425537 
	C638.677612,458.816345 639.564758,455.935089 644.329346,455.564148 
	C643.085205,457.948242 641.444519,460.097656 639.490479,462.425537 
z"/>
<path fill="#F04C78" opacity="1.000000" stroke="none" 
	d="
M643.176880,378.680359 
	C643.044861,377.385803 643.084167,375.773163 643.461182,374.080688 
	C643.648621,375.454620 643.498352,376.908478 643.176880,378.680359 
z"/>
<path fill="#ED1579" opacity="1.000000" stroke="none" 
	d="
M678.007812,200.441132 
	C678.012817,199.994293 678.476074,199.996750 678.707764,199.996155 
	C679.001831,203.025574 679.064209,206.055557 679.049805,209.532684 
	C678.649597,206.949219 678.326172,203.918610 678.007812,200.441132 
z"/>
<path fill="#F04C78" opacity="1.000000" stroke="none" 
	d="
M616.790405,376.258270 
	C616.946167,376.950317 616.929749,377.909607 616.613037,378.934631 
	C616.414490,378.175415 616.516357,377.350464 616.790405,376.258270 
z"/>
<path fill="#EF426E" opacity="1.000000" stroke="none" 
	d="
M674.359070,397.808746 
	C674.184937,397.084106 674.205566,396.101898 674.548828,395.065002 
	C674.765503,395.857269 674.659668,396.704254 674.359070,397.808746 
z"/>
<path fill="#F05174" opacity="1.000000" stroke="none" 
	d="
M599.311523,404.941345 
	C599.462524,404.122620 599.870728,403.121857 600.628906,402.062500 
	C600.508789,402.922363 600.038818,403.840851 599.311523,404.941345 
z"/>
<path fill="#ED0A74" opacity="1.000000" stroke="none" 
	d="
M679.040283,149.595703 
	C678.791077,148.803909 678.621582,147.619263 678.706909,146.223694 
	C679.014404,147.076141 679.067200,148.139496 679.040283,149.595703 
z"/>
<path fill="#F05174" opacity="1.000000" stroke="none" 
	d="
M575.710754,391.103760 
	C575.704590,391.523132 575.439941,392.113129 574.843201,392.787415 
	C574.824829,392.339294 575.138550,391.806824 575.710754,391.103760 
z"/>
<path fill="#F05174" opacity="1.000000" stroke="none" 
	d="
M586.432190,419.415466 
	C586.533386,419.055450 586.915344,418.571014 587.628845,418.039917 
	C587.544556,418.425873 587.128723,418.858459 586.432190,419.415466 
z"/>
<path fill="#F05174" opacity="1.000000" stroke="none" 
	d="
M610.778442,339.742676 
	C610.369934,339.795013 610.283386,339.536316 610.582397,339.113403 
	C610.756287,339.179779 610.800476,339.340607 610.778442,339.742676 
z"/>
<path fill="#F05174" opacity="1.000000" stroke="none" 
	d="
M577.711060,387.910156 
	C577.794983,388.070251 577.674500,388.376312 577.347900,388.824707 
	C577.263428,388.663391 577.385071,388.359741 577.711060,387.910156 
z"/>
<path fill="#F05174" opacity="1.000000" stroke="none" 
	d="
M597.241089,407.797211 
	C597.112366,407.569763 597.263428,407.362488 597.654785,407.116638 
	C597.844849,407.347443 597.720154,407.593872 597.241089,407.797211 
z"/>
<path fill="#FDFDFE" opacity="1.000000" stroke="none" 
	d="
M195.269287,383.999817 
	C195.277527,368.502899 195.284348,353.505981 195.303406,338.509064 
	C195.303802,338.196442 195.445694,337.884003 195.615555,337.184418 
	C196.403473,337.074371 197.327774,336.833160 198.252182,336.832794 
	C215.415421,336.825806 232.580093,336.730530 249.740997,336.938629 
	C254.535446,336.996765 259.393372,337.607819 264.094574,338.581360 
	C286.485809,343.218292 293.479584,358.941284 289.456665,379.681091 
	C286.507202,394.886841 274.744110,404.799255 256.450531,405.835541 
	C236.372894,406.972870 216.181061,406.094574 195.269272,406.094574 
	C195.269272,399.340088 195.269272,391.919952 195.269287,383.999817 
z"/>
<path fill="#FDFDFD" opacity="1.000000" stroke="none" 
	d="
M246.182175,253.290466 
	C229.121124,253.373962 212.490692,253.373962 195.562134,253.373962 
	C195.562134,234.380463 195.562134,214.782928 195.562134,194.535980 
	C198.764008,194.535980 202.049210,194.472641 205.331314,194.547028 
	C219.142761,194.860077 233.073349,194.196976 246.733963,195.809219 
	C264.065094,197.854645 271.865906,207.522461 271.856750,223.730453 
	C271.847351,240.348190 263.368011,250.249237 246.182175,253.290466 
z"/>
<path fill="#ED0A74" opacity="1.000000" stroke="none" 
	d="
M618.994202,153.740112 
	C619.006958,174.363800 619.004150,194.717285 619.010132,215.540497 
	C619.006958,232.688522 618.994812,249.366776 618.796387,266.503113 
	C618.610046,266.961212 618.243530,266.884094 618.243530,266.884094 
	C618.209839,228.937210 618.176147,190.990341 618.187012,152.591064 
	C618.480530,152.582413 618.729614,153.026154 618.994202,153.740112 
z"/>
<path fill="#ED0A74" opacity="1.000000" stroke="none" 
	d="
M618.205078,109.433975 
	C618.636475,109.093941 619.020813,109.052948 619.696533,109.013191 
	C619.600159,109.634033 619.212463,110.253632 618.531311,110.905754 
	C618.211243,110.536522 618.184692,110.134766 618.205078,109.433975 
z"/>
<path fill="#EE3073" opacity="1.000000" stroke="none" 
	d="
M584.365540,353.628662 
	C584.077942,322.201599 584.072754,290.482330 584.378052,258.003235 
	C584.796814,241.830841 584.905151,226.418289 585.480835,211.003662 
	C593.634521,210.998703 601.320923,210.995834 609.003662,210.996490 
	C609.000000,211.000000 609.007324,210.992065 609.002930,211.461533 
	C608.999817,228.874557 608.973999,245.818237 609.043640,262.761505 
	C609.050781,264.492981 609.631531,266.222046 609.946045,267.952209 
	C609.959351,270.335144 609.972595,272.718048 609.978882,275.546509 
	C603.215759,275.661407 596.449341,275.463898 589.707336,274.947815 
	C585.950317,274.660248 584.904419,276.030029 584.928772,279.728882 
	C585.078308,302.456451 585.007935,325.185516 584.982483,347.914032 
	C584.980469,349.721649 584.764465,351.529022 584.365540,353.628662 
z"/>
<path fill="#EE3073" opacity="1.000000" stroke="none" 
	d="
M609.712036,294.233643 
	C609.972961,295.079315 609.977051,296.131287 609.974243,297.577148 
	C609.796692,296.794006 609.625977,295.616943 609.712036,294.233643 
z"/>
<path fill="#EE3073" opacity="1.000000" stroke="none" 
	d="
M609.706116,310.240967 
	C609.966125,311.083160 609.971191,312.130981 609.968262,313.570984 
	C609.790466,312.790985 609.620789,311.618805 609.706116,310.240967 
z"/>
<path fill="#EE2976" opacity="1.000000" stroke="none" 
	d="
M618.180298,267.359741 
	C618.243530,266.884094 618.610046,266.961212 618.796875,266.970520 
	C618.991577,279.683868 618.999390,292.387878 619.018921,305.564697 
	C619.030701,324.315338 619.030701,342.593201 619.030701,360.871063 
	C618.726135,360.871063 618.421631,360.871094 618.117065,360.871094 
	C618.117065,329.859192 618.117065,298.847260 618.180298,267.359741 
z"/>
<path fill="#FAFAFA" opacity="1.000000" stroke="none" 
	d="
M135.078903,589.813599 
	C130.858368,594.585205 125.712296,592.612244 120.712769,593.126343 
	C120.712769,587.718872 120.712769,582.793823 120.712769,577.895508 
	C132.019485,575.334534 137.878311,580.034851 135.078903,589.813599 
z"/>
<path fill="#F0EFF0" opacity="1.000000" stroke="none" 
	d="
M120.461655,562.907349 
	C120.461746,559.995483 120.461746,557.542480 120.461746,554.690430 
	C125.092049,554.449646 129.917770,552.839600 133.061829,556.835327 
	C134.388031,558.520691 134.438370,562.557922 133.323700,564.549438 
	C130.582321,569.446960 125.445274,568.088989 120.461571,567.936584 
	C120.461571,566.276245 120.461571,564.821228 120.461655,562.907349 
z"/>
<path fill="#F0EFF0" opacity="1.000000" stroke="none" 
	d="
M383.237671,570.179688 
	C383.815216,571.921265 384.174774,573.318420 384.663757,575.218506 
	C379.549011,575.218506 374.900665,575.218506 368.363129,575.218506 
	C371.104828,572.172119 372.673615,569.013489 375.042206,568.208740 
	C377.260986,567.454834 380.326660,569.193481 383.237671,570.179688 
z"/>
<path fill="#FAFAFA" opacity="1.000000" stroke="none" 
	d="
M184.919098,572.472534 
	C185.041397,577.944275 185.477524,583.073914 184.914017,588.091187 
	C184.474747,592.002380 181.340134,593.903381 177.363144,593.958130 
	C173.391678,594.012878 170.161636,592.238464 169.679672,588.307495 
	C169.065048,583.294312 168.787323,578.013550 169.771637,573.131836 
	C170.223434,570.891113 173.762375,568.497070 176.378189,567.656799 
	C179.983948,566.498352 183.171677,568.339844 184.919098,572.472534 
z"/>
<path fill="#F8F7F7" opacity="1.000000" stroke="none" 
	d="
M321.897278,665.135254 
	C319.013824,665.135254 316.593262,665.135254 314.077484,665.135254 
	C315.255127,659.429260 317.977356,656.755310 322.165344,657.006653 
	C326.719910,657.280029 328.334015,660.208679 328.563538,665.135254 
	C326.448578,665.135254 324.404388,665.135254 321.897278,665.135254 
z"/>
<path fill="#F8F7F7" opacity="1.000000" stroke="none" 
	d="
M515.694824,580.924805 
	C515.326233,583.813904 515.248840,586.361145 514.527161,588.710510 
	C513.428162,592.288452 510.677246,593.967407 506.932098,593.978088 
	C503.174683,593.988831 499.887146,592.302979 499.434418,588.718933 
	C498.760681,583.385193 498.784943,577.838989 499.457214,572.502197 
	C499.924530,568.792542 503.469788,567.411255 507.065186,567.356262 
	C510.760193,567.299622 513.618774,568.971191 514.632263,572.623779 
	C515.333496,575.151306 515.365967,577.864258 515.694824,580.924805 
z"/>
<path fill="#ED0A74" opacity="1.000000" stroke="none" 
	d="
M585.013550,211.005753 
	C584.905151,226.418289 584.796814,241.830841 584.416504,257.523804 
	C584.144531,226.841873 584.144531,195.879547 584.144531,164.478958 
	C592.595276,164.478958 600.823364,164.478958 609.935181,164.478958 
	C609.935181,179.557236 609.935181,194.786743 609.695923,210.499023 
	C609.456665,210.981827 609.007324,210.992065 609.007324,210.992065 
	C609.007324,210.992065 609.000000,211.000000 609.005981,210.528625 
	C609.006348,196.602310 608.874756,183.145493 609.076111,169.693665 
	C609.132507,165.927078 607.948669,164.710663 604.245544,164.937393 
	C599.611816,165.221130 594.931091,165.247406 590.301392,164.932739 
	C586.245117,164.657043 584.826294,165.881622 584.908569,170.144623 
	C585.171326,183.760605 585.010681,197.384750 585.013550,211.005753 
z"/>
<path fill="#ED2577" opacity="1.000000" stroke="none" 
	d="
M609.002930,211.461533 
	C609.007324,210.992065 609.456665,210.981827 609.679810,210.963974 
	C609.925537,229.639618 609.947998,248.333115 609.958252,267.489410 
	C609.631531,266.222046 609.050781,264.492981 609.043640,262.761505 
	C608.973999,245.818237 608.999817,228.874557 609.002930,211.461533 
z"/>
<path fill="#ED2577" opacity="1.000000" stroke="none" 
	d="
M585.480835,211.003662 
	C585.010681,197.384750 585.171326,183.760605 584.908569,170.144623 
	C584.826294,165.881622 586.245117,164.657043 590.301392,164.932739 
	C594.931091,165.247406 599.611816,165.221130 604.245544,164.937393 
	C607.948669,164.710663 609.132507,165.927078 609.076111,169.693665 
	C608.874756,183.145493 609.006348,196.602310 609.009644,210.525101 
	C601.320923,210.995834 593.634521,210.998703 585.480835,211.003662 
z"/>
</svg>